<?xml version="1.0" encoding="utf-8"?>
<!-- Generator: Adobe Illustrator 16.0.0, SVG Export Plug-In . SVG Version: 6.00 Build 0)  -->
<!DOCTYPE svg PUBLIC "-//W3C//DTD SVG 1.0//EN" "http://www.w3.org/TR/2001/REC-SVG-20010904/DTD/svg10.dtd" [
	<!ENTITY ns_flows "http://ns.adobe.com/Flows/1.0/">
	<!ENTITY ns_extend "http://ns.adobe.com/Extensibility/1.0/">
	<!ENTITY ns_ai "http://ns.adobe.com/AdobeIllustrator/10.0/">
	<!ENTITY ns_graphs "http://ns.adobe.com/Graphs/1.0/">
	<!ENTITY ns_vars "http://ns.adobe.com/Variables/1.0/">
	<!ENTITY ns_imrep "http://ns.adobe.com/ImageReplacement/1.0/">
	<!ENTITY ns_sfw "http://ns.adobe.com/SaveForWeb/1.0/">
	<!ENTITY ns_custom "http://ns.adobe.com/GenericCustomNamespace/1.0/">
	<!ENTITY ns_adobe_xpath "http://ns.adobe.com/XPath/1.0/">
]>
<svg version="1.0" xmlns:x="&ns_extend;" xmlns:i="&ns_ai;" xmlns:graph="&ns_graphs;"
	 xmlns="http://www.w3.org/2000/svg" xmlns:xlink="http://www.w3.org/1999/xlink" xmlns:a="http://ns.adobe.com/AdobeSVGViewerExtensions/3.0/"
	 x="0px" y="0px" width="494.488px" height="91.321px" viewBox="0 0 494.488 91.321" enable-background="new 0 0 494.488 91.321"
	 xml:space="preserve">
<metadata>
	<sfw  xmlns="&ns_sfw;">
		<slices></slices>
		<sliceSourceBounds  width="494.488" height="91.321" y="206.673" x="-355.333" bottomLeftOrigin="true"></sliceSourceBounds>
	</sfw>
</metadata>
<g id="gray">
	<polygon fill="#ECECEB" points="0,25.367 0,81.9 127.265,81.9 127.265,25.388 0,25.367 	"/>
</g>
<g id="Ebene_1">
	<g>
		<path fill="none" d="M79.538,68.489c0.011-0.009,0.023-0.017,0.035-0.025c-1.968-5.475-4.989-10.448-8.828-14.668
			C74.574,58.025,77.583,63.007,79.538,68.489z"/>
		<path fill="none" d="M55.653,20.638c-0.006,0.007-0.012,0.014-0.018,0.02c8.917,2.456,17.076,6.75,24.021,12.473
			C72.717,27.403,64.565,23.104,55.653,20.638z"/>
		<path fill="none" d="M56.458,19.82c-0.006,0.006-0.012,0.013-0.019,0.02c8.845,2.517,16.942,6.817,23.854,12.512
			C73.388,26.651,65.297,22.346,56.458,19.82z"/>
		<path fill="none" d="M83.882,65.719c0.011-0.006,0.021-0.012,0.032-0.018c-2.194-5.683-5.408-10.86-9.435-15.289
			C78.496,54.85,81.701,60.031,83.882,65.719z"/>
		<path fill="none" d="M49.993,27.545c-0.007,0.007-0.014,0.015-0.021,0.022c8.28,1.718,15.904,5.233,22.442,10.123
			C65.884,32.795,58.267,29.273,49.993,27.545z"/>
		<path fill="none" d="M82.996,66.219c0.01-0.006,0.021-0.012,0.031-0.018c-2.149-5.62-5.318-10.738-9.295-15.112
			C77.699,55.471,80.859,60.594,82.996,66.219z"/>
		<path fill="none" d="M78.691,69.13c0.011-0.009,0.023-0.018,0.034-0.026c-1.918-5.464-4.904-10.428-8.722-14.626
			C73.812,58.686,76.787,63.658,78.691,69.13z"/>
		<path fill="none" d="M101.376,37.262c0.004,0,0.009,0,0.013,0c-1.649-2.255-3.403-4.429-5.278-6.492
			C97.982,32.834,99.732,35.006,101.376,37.262z"/>
		<path fill="none" d="M75.399,72.034c0.013-0.013,0.024-0.024,0.037-0.037c-1.692-5.571-4.6-10.614-8.42-14.814
			C70.828,61.396,73.723,66.452,75.399,72.034z"/>
		<path fill="none" d="M95.2,56.241c-2.38-4.997-5.406-9.624-8.959-13.79c0,0,0,0-0.001,0c3.545,4.171,6.561,8.805,8.933,13.805
			C95.182,56.252,95.19,56.247,95.2,56.241z"/>
		<path fill="none" d="M98.047,6.556c0,0-0.001,0-0.001,0.001c0.712,0.555,1.419,1.117,2.116,1.691
			C99.465,7.673,98.759,7.111,98.047,6.556z"/>
		<path fill="none" d="M38.311,69.672c-2.365,0-4.588,0.606-6.525,1.668c1.921-1.039,4.119-1.629,6.455-1.629
			c7.51,0,13.604,6.096,13.604,13.604c0,2.916-0.927,5.612-2.491,7.828c0.015-0.002,0.029-0.003,0.044-0.004
			c1.579-2.222,2.517-4.931,2.517-7.863C51.916,75.767,45.821,69.672,38.311,69.672z"/>
		<path fill="none" d="M49.135,28.403c-0.009,0.009-0.018,0.019-0.028,0.027c9.287,1.81,17.757,5.911,24.787,11.704
			C66.874,34.336,58.413,30.226,49.135,28.403z"/>
		<path fill="none" d="M97.187,7.167C97.187,7.167,97.187,7.167,97.187,7.167c0.183,0.142,0.37,0.281,0.552,0.424
			C97.557,7.447,97.371,7.309,97.187,7.167z"/>
		<path fill="none" d="M96.33,7.779L96.33,7.779c0.261,0.202,0.526,0.399,0.786,0.604C96.856,8.178,96.592,7.98,96.33,7.779z"/>
		<path fill="none" d="M53.521,23.189c-0.006,0.008-0.012,0.016-0.019,0.024c9.021,2.268,17.26,6.509,24.225,12.246
			C70.77,29.716,62.537,25.467,53.521,23.189z"/>
		<path fill="none" d="M35.779,87.037c-1.178-0.819-1.953-2.179-1.953-3.722c0-2.503,2.031-4.534,4.535-4.534
			c0.938,0,1.809,0.285,2.532,0.773c-0.734-0.51-1.621-0.813-2.582-0.813c-2.503,0-4.535,2.031-4.535,4.535
			C33.776,84.842,34.571,86.222,35.779,87.037z"/>
		<path fill="none" d="M97.422,61.506c-0.304-0.826-0.629-1.642-0.967-2.451c-0.015-0.005-0.028-0.009-0.044-0.014
			c0.339,0.815,0.668,1.636,0.974,2.468C97.397,61.508,97.41,61.507,97.422,61.506z"/>
		<path fill="none" d="M44.862,83.276c0-3.616-2.936-6.551-6.551-6.551c-1.15,0-2.23,0.299-3.17,0.821
			c0.923-0.498,1.979-0.781,3.1-0.781c3.615,0,6.551,2.935,6.551,6.55c0,2.466-1.366,4.612-3.38,5.73
			C43.464,87.939,44.862,85.771,44.862,83.276z"/>
		<path fill="none" d="M52.844,24.067c-0.006,0.008-0.012,0.016-0.019,0.024c9.043,2.204,17.303,6.414,24.266,12.15
			C70.136,30.498,61.882,26.28,52.844,24.067z"/>
		<path fill="none" d="M36.332,80.358c0.551-0.356,1.205-0.569,1.909-0.569c1.947,0,3.527,1.58,3.527,3.526
			c0,1.214-0.615,2.285-1.549,2.919c0.972-0.628,1.62-1.716,1.62-2.958c0-1.947-1.58-3.527-3.527-3.527
			C37.577,79.749,36.896,79.974,36.332,80.358z"/>
		<path fill="none" d="M92.358,62.397c-2.536-6.553-6.222-12.531-10.821-17.683h0c4.588,5.157,8.264,11.138,10.788,17.692
			C92.335,62.403,92.346,62.4,92.358,62.397z"/>
		<path fill="none" d="M93.35,62.166c-2.556-6.653-6.279-12.725-10.925-17.965l0,0c4.634,5.246,8.347,11.319,10.89,17.973
			C93.327,62.171,93.338,62.168,93.35,62.166z"/>
		<path fill="none" d="M102.644,37.306c0.004,0,0.009,0,0.013,0c-1.802-2.517-3.73-4.937-5.808-7.222
			C98.922,32.37,100.847,34.789,102.644,37.306z"/>
		<path fill="none" d="M48.163,29.253c-0.011,0.009-0.021,0.018-0.031,0.026c9.426,1.696,18.025,5.784,25.125,11.635
			C66.167,35.059,57.58,30.962,48.163,29.253z"/>
		<path fill="none" d="M96.071,55.722c-2.354-4.923-5.325-9.493-8.803-13.623l0,0c3.471,4.135,6.43,8.712,8.776,13.639
			C96.053,55.733,96.062,55.728,96.071,55.722z"/>
		<path fill="none" d="M47.973,75.202c1.79,2.175,2.865,4.959,2.865,7.994c0,3.069-1.102,5.881-2.929,8.067
			c0.048-0.003,0.096-0.004,0.144-0.007c1.783-2.173,2.855-4.952,2.855-7.98C50.908,80.203,49.803,77.389,47.973,75.202z"/>
		<path fill="none" d="M38.311,81.765c-0.316,0-0.609,0.098-0.852,0.264c0.229-0.139,0.494-0.224,0.781-0.224
			c0.834,0,1.512,0.677,1.512,1.511c0,0.519-0.262,0.976-0.661,1.248c0.437-0.265,0.731-0.74,0.731-1.287
			C39.823,82.441,39.145,81.765,38.311,81.765z"/>
		<path fill="none" d="M38.361,58.626c5.945,0,11.4,2.105,15.663,5.609c-4.27-3.528-9.745-5.649-15.712-5.649
			c-8.701,0-16.35,4.513-20.748,11.32c0.008,0.027,0.017,0.053,0.024,0.08C21.981,63.156,29.643,58.626,38.361,58.626z"/>
		<path fill="none" d="M45.87,83.276c0-1.857-0.673-3.556-1.786-4.872c1.071,1.305,1.715,2.973,1.715,4.792
			c0,3.669-2.62,6.728-6.089,7.412c0.074,0.017,0.149,0.03,0.223,0.046C43.326,89.911,45.87,86.891,45.87,83.276z"/>
		<path fill="none" d="M98.461,61.411c-0.24-0.659-0.503-1.306-0.764-1.954c-0.015-0.005-0.03-0.01-0.044-0.015
			c0.262,0.654,0.525,1.308,0.767,1.973C98.433,61.414,98.447,61.412,98.461,61.411z"/>
		<path fill="none" d="M107.286,36.866c-1.573-2.333-3.266-4.577-5.061-6.733h0c1.791,2.157,3.476,4.404,5.045,6.737
			C107.275,36.869,107.28,36.867,107.286,36.866z"/>
		<path fill="none" d="M115.077,39.891c-0.274-0.485-0.555-0.966-0.838-1.445c-0.006,0.003-0.012,0.005-0.018,0.008
			c0.285,0.483,0.566,0.968,0.842,1.457C115.068,39.904,115.072,39.898,115.077,39.891z"/>
		<path fill="none" d="M74.59,72.875c0.012-0.013,0.024-0.026,0.036-0.04c-1.621-5.64-4.51-10.746-8.354-14.972
			C70.108,62.105,72.987,67.223,74.59,72.875z"/>
		<path fill="none" d="M115.732,38.999c-0.183-0.318-0.371-0.632-0.557-0.948c-0.006,0.002-0.012,0.005-0.019,0.007
			c0.188,0.32,0.377,0.638,0.562,0.96C115.722,39.012,115.727,39.005,115.732,38.999z"/>
		<path fill="none" d="M109.08,47.948c-1.105-2.208-2.307-4.357-3.606-6.441c-0.007,0-0.013-0.002-0.021-0.002
			c1.301,2.092,2.503,4.25,3.609,6.465C109.068,47.962,109.074,47.955,109.08,47.948z"/>
		<path fill="none" d="M111.789,44.396c-0.709-1.337-1.446-2.656-2.224-3.948c-0.007,0.003-0.013,0.005-0.02,0.008
			c0.78,1.297,1.518,2.622,2.227,3.964C111.778,44.412,111.783,44.404,111.789,44.396z"/>
		<path fill="none" d="M112.455,43.486c-0.622-1.156-1.272-2.294-1.946-3.417c-0.006,0.002-0.013,0.005-0.02,0.008
			c0.675,1.128,1.326,2.271,1.949,3.433C112.443,43.501,112.449,43.494,112.455,43.486z"/>
		<path fill="none" d="M119.321,25.925c-0.251-0.354-0.509-0.703-0.765-1.053c-0.003,0.001-0.006,0.002-0.009,0.003
			c0.257,0.354,0.516,0.706,0.768,1.062C119.316,25.933,119.319,25.929,119.321,25.925z"/>
		<path fill="none" d="M115.727,31.362c-0.96-1.429-1.96-2.828-2.996-4.199c-0.002,0.001-0.005,0.002-0.007,0.003
			c1.035,1.374,2.034,2.777,2.993,4.208C115.721,31.371,115.724,31.366,115.727,31.362z"/>
		<path fill="none" d="M108.303,36.587c-1.535-2.295-3.176-4.512-4.922-6.641c-0.002,0-0.004,0.001-0.006,0.001
			c1.744,2.13,3.382,4.348,4.914,6.644C108.292,36.59,108.297,36.588,108.303,36.587z"/>
		<path fill="none" d="M116.384,30.533c-0.859-1.269-1.749-2.515-2.667-3.738c-0.002,0.001-0.004,0.002-0.007,0.002
			c0.918,1.226,1.807,2.475,2.666,3.746C116.379,30.54,116.381,30.536,116.384,30.533z"/>
		<path fill="none" d="M71.478,77.316c0.014-0.023,0.029-0.046,0.043-0.069c-1.147-6.353-4.064-12.093-8.235-16.678
			C67.452,65.178,70.356,70.94,71.478,77.316z"/>
		<path fill="none" d="M112.786,34.226c-1.286-1.947-2.643-3.841-4.073-5.677c-0.002,0-0.004,0.001-0.007,0.002
			c1.428,1.838,2.784,3.735,4.068,5.684C112.778,34.231,112.782,34.229,112.786,34.226z"/>
		<path fill="none" d="M111.972,34.82c-1.349-2.045-2.775-4.034-4.284-5.956c-0.002,0.001-0.005,0.001-0.007,0.002
			c1.508,1.924,2.933,3.914,4.279,5.961C111.963,34.826,111.968,34.823,111.972,34.82z"/>
		<path fill="none" d="M100.471,53.241c-2.133-4.404-4.733-8.537-7.715-12.359c-0.002,0-0.004,0.001-0.006,0.001
			c2.976,3.827,5.571,7.962,7.698,12.37C100.456,53.249,100.463,53.245,100.471,53.241z"/>
		<path fill="none" d="M38.311,64.633c-3.235,0-6.278,0.828-8.931,2.28c2.636-1.428,5.654-2.24,8.861-2.24
			c10.291,0,18.644,8.352,18.644,18.643c0,2.267-0.426,4.431-1.168,6.441c0.021-0.007,0.042-0.015,0.063-0.022
			c0.746-2.015,1.174-4.184,1.174-6.458C56.954,72.985,48.602,64.633,38.311,64.633z"/>
		<path fill="none" d="M102.438,3.612L102.438,3.612c0.31,0.25,0.622,0.496,0.929,0.749C103.061,4.108,102.748,3.862,102.438,3.612z
			"/>
		<path fill="none" d="M95.897,36.737c0.002,0,0.005,0,0.008,0.001c-0.899-1.112-1.82-2.205-2.781-3.262
			C94.083,34.533,95.001,35.626,95.897,36.737z"/>
		<path fill="none" d="M99.584,53.72c-2.19-4.528-4.88-8.766-7.976-12.668c-0.002,0-0.004,0.001-0.006,0.001
			c3.09,3.907,5.775,8.148,7.958,12.68C99.568,53.729,99.577,53.724,99.584,53.72z"/>
		<path fill="none" d="M51.862,72c2.507,3.046,4.015,6.946,4.015,11.197c0,2.468-0.512,4.815-1.428,6.949
			c0.041-0.012,0.081-0.023,0.122-0.035c0.885-2.102,1.376-4.411,1.376-6.833C55.946,78.987,54.41,75.057,51.862,72z"/>
		<path fill="none" d="M55.082,68.022c3.624,4.02,5.833,9.34,5.833,15.174c0,1.54-0.155,3.044-0.448,4.498
			c0.032-0.018,0.062-0.038,0.094-0.055c0.276-1.413,0.424-2.87,0.424-4.363C60.985,77.404,58.749,72.051,55.082,68.022z"/>
		<path fill="none" d="M94.506,36.609L94.506,36.609c-0.691-0.832-1.396-1.651-2.123-2.45
			C93.109,34.959,93.816,35.776,94.506,36.609z"/>
		<path fill="none" d="M38.311,54.556c-4.982,0-9.668,1.272-13.753,3.506c4.068-2.21,8.73-3.466,13.683-3.466
			c15.716,0,28.49,12.646,28.71,28.311c0.023-0.022,0.046-0.045,0.069-0.067C66.786,67.187,54.018,54.556,38.311,54.556z"/>
		<path fill="none" d="M70.658,78.558c0.017-0.024,0.035-0.047,0.051-0.071c-0.967-6.583-3.89-12.533-8.166-17.234
			C66.813,65.977,69.72,71.951,70.658,78.558z"/>
		<path fill="none" d="M108.36,48.753c-1.272-2.575-2.688-5.064-4.227-7.469c-0.007-0.001-0.014-0.002-0.021-0.004
			c1.539,2.413,2.957,4.909,4.229,7.492C108.348,48.766,108.354,48.76,108.36,48.753z"/>
		<path fill="none" d="M58.815,64.639c4.436,4.914,7.139,11.421,7.139,18.558c0,0.219-0.012,0.435-0.017,0.653
			c0.024-0.021,0.05-0.042,0.074-0.063c0.003-0.17,0.013-0.338,0.013-0.509C66.024,76.102,63.293,69.562,58.815,64.639z"/>
		<path fill="none" d="M104.98,50.995c-1.756-3.617-3.81-7.059-6.107-10.318c-0.005,0-0.009,0-0.014,0
			c2.294,3.264,4.346,6.709,6.097,10.33C104.965,51.003,104.973,50.999,104.98,50.995z"/>
		<path fill="none" d="M104.07,51.429c-1.845-3.799-4.02-7.405-6.469-10.802c-0.004,0-0.008,0-0.012,0
			c2.444,3.401,4.618,7.009,6.458,10.812C104.055,51.436,104.062,51.432,104.07,51.429z"/>
		<path fill="none" d="M38.311,59.594c-4.113,0-7.981,1.052-11.353,2.898c3.355-1.823,7.199-2.858,11.283-2.858
			c13.072,0,23.682,10.609,23.682,23.682c0,1.259-0.101,2.494-0.29,3.699c0.023-0.014,0.048-0.027,0.071-0.041
			c0.189-1.205,0.29-2.439,0.29-3.697C61.993,70.203,51.383,59.594,38.311,59.594z"/>
		<path fill="none" d="M38.361,53.588c7.162,0,13.733,2.537,18.867,6.76c-5.141-4.248-11.732-6.8-18.917-6.8
			c-8.67,0-16.476,3.72-21.911,9.647c0.001,0.029,0.002,0.059,0.004,0.088C21.841,57.327,29.667,53.588,38.361,53.588z"/>
		<path fill="none" d="M38.361,61.649c5.212,0,9.996,1.845,13.735,4.915c-3.747-3.095-8.55-4.955-13.785-4.955
			c-8.487,0-15.835,4.891-19.39,12.003c0.011,0.025,0.021,0.051,0.032,0.076C22.5,66.557,29.859,61.649,38.361,61.649z"/>
		<path fill="none" d="M38.361,62.657c4.973,0,9.537,1.762,13.103,4.693c-3.574-2.956-8.157-4.733-13.153-4.733
			c-8.381,0-15.586,5.008-18.825,12.186c0.012,0.024,0.022,0.048,0.035,0.072C22.751,67.68,29.966,62.657,38.361,62.657z"/>
		<path fill="none" d="M75.124,22.51c-4.257-2.585-8.814-4.719-13.595-6.373c-0.008,0.004-0.016,0.009-0.024,0.014
			c4.789,1.651,9.354,3.784,13.618,6.369C75.123,22.517,75.123,22.513,75.124,22.51z"/>
		<path fill="none" d="M88.89,13.554c-0.001,0.001-0.002,0.001-0.002,0.002c1.438,1.044,2.854,2.116,4.224,3.245
			C91.743,15.671,90.327,14.599,88.89,13.554z"/>
		<path fill="none" d="M88.09,14.222c-0.001,0.001-0.002,0.001-0.003,0.002c1.495,1.078,2.966,2.186,4.386,3.356
			C91.055,16.409,89.584,15.301,88.09,14.222z"/>
		<path fill="none" d="M89.703,12.882c-0.001,0.001-0.002,0.002-0.003,0.002c1.384,1.011,2.741,2.057,4.061,3.146
			C92.442,14.94,91.086,13.894,89.703,12.882z"/>
		<path fill="none" d="M75.344,21.475c-3.979-2.391-8.207-4.407-12.636-6.002c-0.008,0.004-0.017,0.009-0.025,0.014
			c4.437,1.593,8.672,3.607,12.659,5.998C75.342,21.48,75.343,21.478,75.344,21.475z"/>
		<path fill="none" d="M58.501,58.786c-5.488-4.531-12.523-7.254-20.19-7.254c-8.515,0-16.244,3.365-21.947,8.829
			c-0.001,0.031-0.004,0.062-0.005,0.092c5.708-5.495,13.459-8.881,22.002-8.881C46.005,51.572,53.02,54.28,58.501,58.786z"/>
		<path fill="none" d="M79.312,14.459c-2.022-1.208-4.096-2.339-6.228-3.369c-0.006,0.002-0.013,0.003-0.019,0.005
			c2.137,1.03,4.215,2.162,6.242,3.371C79.309,14.464,79.31,14.461,79.312,14.459z"/>
		<path fill="none" d="M38.361,63.665c4.73,0,9.072,1.676,12.465,4.464c-3.4-2.812-7.761-4.504-12.515-4.504
			c-8.254,0-15.312,5.103-18.222,12.319c0.013,0.024,0.026,0.048,0.039,0.072C23.029,68.784,30.095,63.665,38.361,63.665z"/>
		<path fill="none" d="M77.612,16.968c-2.801-1.665-5.715-3.159-8.731-4.464c-0.007,0.003-0.014,0.005-0.021,0.008
			c3.021,1.304,5.939,2.799,8.747,4.464C77.608,16.973,77.61,16.97,77.612,16.968z"/>
		<path fill="none" d="M60.425,56.454c-6.011-4.963-13.716-7.945-22.114-7.945c-8.097,0-15.543,2.78-21.455,7.427
			c-0.006,0.031-0.013,0.062-0.019,0.094c5.922-4.679,13.396-7.48,21.523-7.48C46.735,48.549,54.421,51.516,60.425,56.454z"/>
		<path fill="none" d="M76.585,18.702c-3.273-1.945-6.708-3.643-10.277-5.08c-0.008,0.004-0.016,0.007-0.024,0.011
			c3.576,1.436,7.017,3.132,10.297,5.077C76.582,18.707,76.583,18.704,76.585,18.702z"/>
		<path fill="none" d="M77.085,17.827c-3.038-1.805-6.208-3.409-9.5-4.784c-0.008,0.003-0.017,0.007-0.025,0.01
			c3.298,1.374,6.475,2.977,9.519,4.782C77.082,17.833,77.083,17.83,77.085,17.827z"/>
		<path fill="none" d="M77.981,23.145c-0.002,0.001-0.003,0.002-0.005,0.004c2.133,1.408,4.195,2.916,6.162,4.537
			C82.173,26.063,80.112,24.554,77.981,23.145z"/>
		<path fill="none" d="M61.073,55.682c-6.187-5.11-14.117-8.181-22.762-8.181c-7.902,0-15.204,2.571-21.125,6.915
			c-0.008,0.031-0.017,0.062-0.024,0.092c5.935-4.376,13.265-6.967,21.199-6.967C46.982,47.541,54.893,50.597,61.073,55.682z"/>
		<path fill="none" d="M38.361,56.61c5.988,0,11.518,1.974,15.974,5.307c-4.464-3.355-10.013-5.346-16.023-5.346
			c-8.746,0-16.514,4.212-21.386,10.716c0.005,0.028,0.011,0.056,0.017,0.084C21.812,60.842,29.595,56.61,38.361,56.61z"/>
		<path fill="none" d="M80.351,21.079c0,0.001-0.001,0.002-0.002,0.002c1.973,1.334,3.879,2.76,5.712,4.271
			C84.229,23.84,82.323,22.415,80.351,21.079z"/>
		<path fill="none" d="M57.331,19.02c-0.007,0.006-0.014,0.013-0.021,0.019c7.712,2.272,14.854,5.88,21.139,10.58
			C72.17,24.915,65.036,21.3,57.331,19.02z"/>
		<path fill="none" d="M60.376,16.811c-0.008,0.005-0.016,0.009-0.024,0.014c8.292,2.745,15.907,6.98,22.504,12.416
			C76.268,23.802,68.66,19.562,60.376,16.811z"/>
		<path fill="none" d="M38.361,57.618c6.19,0,11.87,2.193,16.308,5.843c-4.444-3.674-10.145-5.883-16.357-5.883
			c-8.734,0-16.45,4.368-21.094,11.034c0.006,0.027,0.014,0.054,0.021,0.081C21.878,62.004,29.608,57.618,38.361,57.618z"/>
		<path fill="none" d="M77.111,23.783c-0.002,0.001-0.004,0.003-0.006,0.004c2.216,1.446,4.357,2.999,6.393,4.676
			C81.464,26.785,79.325,25.231,77.111,23.783z"/>
		<path fill="none" d="M85.726,16.249c-0.001,0-0.002,0.001-0.003,0.002c1.654,1.171,3.277,2.384,4.838,3.671
			C89.001,18.634,87.379,17.42,85.726,16.249z"/>
		<path fill="none" d="M84.949,16.932c-0.001,0.001-0.002,0.002-0.003,0.003c1.705,1.199,3.375,2.445,4.979,3.769
			C88.321,19.378,86.652,18.132,84.949,16.932z"/>
		<path fill="none" d="M84.175,17.618c-0.001,0-0.001,0.001-0.002,0.002c1.748,1.222,3.456,2.496,5.097,3.849
			C87.629,20.114,85.921,18.84,84.175,17.618z"/>
		<path fill="none" d="M38.361,52.58c7.404,0,14.199,2.624,19.507,6.99c-5.314-4.391-12.129-7.03-19.557-7.03
			c-8.604,0-16.382,3.546-21.963,9.25c0,0.031-0.001,0.062,0,0.092C21.932,56.148,29.73,52.58,38.361,52.58z"/>
		<path fill="none" d="M92.149,10.925c-0.001,0-0.001,0.001-0.002,0.001c0.628,0.468,1.252,0.942,1.867,1.426
			C93.399,11.869,92.777,11.394,92.149,10.925z"/>
		<path fill="none" d="M118.771,26.901c-0.386-0.55-0.779-1.095-1.176-1.636c-0.003,0.001-0.006,0.002-0.009,0.004
			c0.398,0.544,0.791,1.091,1.178,1.644C118.767,26.908,118.769,26.904,118.771,26.901z"/>
		<path fill="none" d="M81.876,19.692c0,0-0.001,0.001-0.002,0.002c1.882,1.29,3.71,2.655,5.468,4.103
			C85.586,22.348,83.758,20.984,81.876,19.692z"/>
		<path fill="none" d="M81.115,20.386c-0.001,0.001-0.002,0.002-0.003,0.002c1.93,1.314,3.8,2.711,5.597,4.193
			C84.913,23.098,83.043,21.702,81.115,20.386z"/>
		<path fill="none" d="M83.133,9.693c-0.154-0.094-0.31-0.184-0.464-0.277c-0.005,0-0.01,0.001-0.016,0.002
			c0.157,0.095,0.318,0.184,0.475,0.28C83.13,9.696,83.132,9.695,83.133,9.693z"/>
		<path fill="none" d="M38.361,73.742c2.298,0,4.406,0.812,6.057,2.164c-1.658-1.375-3.786-2.204-6.107-2.204
			c-5.284,0-9.573,4.289-9.573,9.574c0,0.929,0.139,1.825,0.387,2.675c0.016,0.011,0.031,0.021,0.047,0.032
			c-0.246-0.848-0.385-1.741-0.385-2.667C28.787,78.031,33.076,73.742,38.361,73.742z"/>
		<path fill="none" d="M39.349,32.412c-0.045,0.011-0.09,0.023-0.135,0.034c11.083,0.183,21.31,3.9,29.588,10.092
			C60.561,36.358,50.383,32.634,39.349,32.412z"/>
		<path fill="none" d="M44.011,31.695l-0.15,0.015c10.37,1.094,19.834,5.244,27.47,11.535
			C63.736,36.972,54.326,32.824,44.011,31.695z"/>
		<path fill="none" d="M82.46,10.459c-0.489-0.297-0.995-0.57-1.491-0.858c-0.005,0-0.011,0.001-0.016,0.002
			c0.5,0.289,1.008,0.564,1.501,0.863C82.457,10.464,82.458,10.461,82.46,10.459z"/>
		<path fill="none" d="M46.807,83.315c0,3.23-1.792,6.042-4.435,7.502c2.681-1.448,4.504-4.283,4.504-7.541
			c0-4.729-3.837-8.566-8.565-8.566c-1.499,0-2.907,0.388-4.132,1.065c1.209-0.653,2.592-1.025,4.062-1.025
			C42.969,74.75,46.807,78.588,46.807,83.315z"/>
		<path fill="none" d="M38.361,72.734c2.54,0,4.87,0.898,6.694,2.391c-1.832-1.518-4.182-2.431-6.744-2.431
			c-5.841,0-10.581,4.741-10.581,10.582c0,0.604,0.062,1.192,0.16,1.768c0.016,0.013,0.033,0.024,0.049,0.037
			c-0.097-0.575-0.159-1.163-0.159-1.766C27.78,77.475,32.52,72.734,38.361,72.734z"/>
		<path fill="none" d="M70.042,44.793c-8.625-7.121-19.681-11.401-31.73-11.401c-0.813,0-1.622,0.023-2.425,0.062
			c-0.042,0.016-0.085,0.03-0.127,0.046c0.862-0.044,1.729-0.068,2.603-0.068C50.388,33.433,61.424,37.697,70.042,44.793z"/>
		<path fill="none" d="M37.998,83.661c-0.086-0.09-0.141-0.211-0.141-0.346c0-0.277,0.226-0.504,0.504-0.504
			c0.12,0,0.227,0.048,0.313,0.119c-0.092-0.096-0.22-0.158-0.363-0.158c-0.278,0-0.504,0.226-0.504,0.504
			C37.807,83.434,37.884,83.568,37.998,83.661z"/>
		<path fill="none" d="M52.168,24.945c-0.006,0.008-0.013,0.016-0.019,0.024c9.065,2.137,17.345,6.317,24.305,12.052
			C69.501,31.28,61.229,27.092,52.168,24.945z"/>
		<path fill="none" d="M93.804,9.651C93.804,9.651,93.803,9.651,93.804,9.651c0.488,0.369,0.975,0.74,1.456,1.118
			C94.779,10.39,94.292,10.02,93.804,9.651z"/>
		<path fill="none" d="M88.501,63.603c-2.414-6.147-5.91-11.751-10.276-16.558l0,0c4.354,4.813,7.841,10.421,10.243,16.571
			C88.479,63.611,88.49,63.606,88.501,63.603z"/>
		<path fill="none" d="M32.818,83.315c0-3.06,2.483-5.542,5.543-5.542c1.324,0,2.539,0.466,3.492,1.242
			c-0.961-0.8-2.195-1.282-3.542-1.282c-3.06,0-5.543,2.483-5.543,5.543c0,1.736,0.801,3.286,2.053,4.302
			C33.598,86.562,32.818,85.029,32.818,83.315z"/>
		<path fill="none" d="M38.241,85.715c-0.69,0-1.314-0.279-1.769-0.728c0.46,0.494,1.111,0.808,1.839,0.808
			c1.391,0,2.52-1.128,2.52-2.519c0-0.701-0.288-1.334-0.75-1.792c0.418,0.45,0.68,1.048,0.68,1.711
			C40.76,84.587,39.631,85.715,38.241,85.715z"/>
		<path fill="none" d="M68.131,47.137c-8.104-6.696-18.495-10.721-29.82-10.721c-3.384,0-6.681,0.368-9.862,1.05
			c-0.034,0.025-0.066,0.05-0.1,0.075c3.227-0.704,6.574-1.084,10.011-1.084C49.663,36.456,60.035,40.465,68.131,47.137z"/>
		<path fill="none" d="M87.531,63.986c0.011-0.004,0.022-0.009,0.033-0.013c-2.372-6.042-5.81-11.55-10.103-16.272
			C81.743,52.43,85.171,57.941,87.531,63.986z"/>
		<path fill="none" d="M92.976,10.286C92.976,10.286,92.976,10.286,92.976,10.286c0.558,0.419,1.111,0.843,1.66,1.274
			C94.088,11.128,93.534,10.704,92.976,10.286z"/>
		<path fill="none" d="M61.709,54.901c-6.359-5.252-14.513-8.408-23.398-8.408c-7.678,0-14.807,2.359-20.707,6.389
			c-0.01,0.032-0.021,0.064-0.03,0.096c5.915-4.062,13.073-6.445,20.786-6.445C47.224,46.533,55.357,49.674,61.709,54.901z"/>
		<path fill="none" d="M38.361,71.727c2.783,0,5.337,0.984,7.335,2.621c-2.006-1.662-4.579-2.661-7.385-2.661
			c-6.397,0-11.589,5.192-11.589,11.59c0,0.287,0.022,0.569,0.043,0.851c0.017,0.014,0.034,0.027,0.05,0.041
			c-0.021-0.283-0.043-0.565-0.043-0.853C26.772,76.919,31.964,71.727,38.361,71.727z"/>
		<path fill="none" d="M64.274,51.792c-7.057-5.827-16.104-9.329-25.963-9.329c-6.479,0-12.602,1.519-18.045,4.209
			c-0.017,0.029-0.031,0.06-0.048,0.089c5.467-2.721,11.625-4.259,18.143-4.259C48.197,42.502,57.224,45.989,64.274,51.792z"/>
		<path fill="none" d="M63.63,52.567c-6.882-5.682-15.704-9.096-25.319-9.096c-6.826,0-13.25,1.723-18.867,4.754
			c-0.014,0.029-0.027,0.058-0.041,0.086c5.637-3.062,12.096-4.801,18.958-4.801C47.953,43.51,56.755,46.909,63.63,52.567z"/>
		<path fill="none" d="M80.527,12.833c-1.445-0.869-2.927-1.682-4.428-2.462c-0.007,0.001-0.014,0.003-0.021,0.004
			c1.507,0.781,2.993,1.596,4.443,2.466C80.522,12.838,80.524,12.835,80.527,12.833z"/>
		<path fill="none" d="M38.361,68.703c3.513,0,6.737,1.244,9.258,3.312c-2.528-2.093-5.772-3.352-9.308-3.352
			c-7.38,0-13.472,5.486-14.457,12.597c0.016,0.018,0.032,0.035,0.048,0.052C24.881,74.196,30.976,68.703,38.361,68.703z"/>
		<path fill="none" d="M38.361,66.688c3.999,0,7.668,1.416,10.537,3.77c-2.876-2.379-6.565-3.81-10.587-3.81
			c-7.778,0-14.295,5.356-16.109,12.574c0.015,0.02,0.03,0.04,0.045,0.06C24.054,72.055,30.576,66.688,38.361,66.688z"/>
		<path fill="none" d="M79.912,13.641c-1.743-1.044-3.532-2.016-5.356-2.93c-0.007,0.001-0.014,0.003-0.021,0.005
			c1.83,0.914,3.624,1.888,5.371,2.933C79.908,13.646,79.91,13.644,79.912,13.641z"/>
		<path fill="none" d="M38.361,67.696c3.756,0,7.204,1.33,9.899,3.542c-2.703-2.237-6.169-3.582-9.949-3.582
			c-7.583,0-13.905,5.415-15.32,12.586c0.016,0.019,0.032,0.038,0.047,0.057C24.446,73.12,30.771,67.696,38.361,67.696z"/>
		<path fill="none" d="M66.846,48.688c-7.755-6.406-17.698-10.257-28.535-10.257c-4.628,0-9.092,0.703-13.293,2.007
			c-0.027,0.027-0.055,0.055-0.083,0.083c4.24-1.33,8.749-2.049,13.426-2.049C49.175,38.472,59.098,42.307,66.846,48.688z"/>
		<path fill="none" d="M64.911,51.011c-7.23-5.969-16.499-9.556-26.6-9.556c-6.084,0-11.861,1.312-17.078,3.652
			c-0.02,0.029-0.041,0.059-0.06,0.088c5.245-2.371,11.06-3.702,17.188-3.702C48.439,41.494,57.688,45.066,64.911,51.011z"/>
		<path fill="none" d="M67.486,47.911c-7.929-6.55-18.095-10.487-29.175-10.487c-4.047,0-7.969,0.53-11.708,1.516
			c-0.029,0.026-0.057,0.053-0.086,0.079c3.78-1.009,7.748-1.555,11.844-1.555C49.418,37.464,59.564,41.385,67.486,47.911z"/>
		<path fill="#F18700" d="M108.178,0.492c0.077-0.17,0.156-0.345,0.213-0.492c-0.159,0.091-0.312,0.183-0.471,0.274
			C108.006,0.346,108.092,0.419,108.178,0.492z"/>
		<path fill="#F18800" d="M106.983,0.819c0.247,0.206,0.491,0.415,0.735,0.622c0.181-0.349,0.33-0.661,0.459-0.949
			c-0.086-0.073-0.172-0.146-0.258-0.218C107.605,0.455,107.293,0.637,106.983,0.819z"/>
		<path fill="#F18900" d="M106.066,1.363c0.392,0.324,0.777,0.655,1.165,0.985c0.177-0.319,0.341-0.623,0.488-0.907
			c-0.245-0.208-0.489-0.417-0.735-0.622C106.675,1,106.369,1.181,106.066,1.363z"/>
		<path fill="#F18A00" d="M105.15,1.916c0.529,0.435,1.052,0.877,1.573,1.323c0.179-0.308,0.35-0.607,0.507-0.891
			c-0.387-0.33-0.773-0.661-1.165-0.985C105.758,1.547,105.453,1.731,105.15,1.916z"/>
		<path fill="#F28B00" d="M104.255,2.465c0.659,0.539,1.31,1.086,1.955,1.641c0.178-0.297,0.35-0.587,0.513-0.867
			c-0.521-0.445-1.043-0.888-1.573-1.323C104.85,2.099,104.551,2.282,104.255,2.465z"/>
		<path fill="#F28C00" d="M103.352,3.031c0.785,0.639,1.564,1.286,2.33,1.947c0.184-0.299,0.358-0.587,0.529-0.872
			c-0.645-0.555-1.296-1.102-1.955-1.641C103.952,2.653,103.65,2.842,103.352,3.031z"/>
		<path fill="#F28D00" d="M102.438,3.612c0.31,0.25,0.623,0.496,0.929,0.749c0.596,0.491,1.185,0.99,1.769,1.494
			c0.188-0.299,0.367-0.589,0.544-0.878c-0.766-0.661-1.544-1.308-2.33-1.947C103.044,3.225,102.74,3.418,102.438,3.612z"/>
		<path fill="#F28E00" d="M102.438,3.613c-0.299,0.192-0.597,0.384-0.891,0.576c1.03,0.824,2.047,1.662,3.043,2.524
			c0.184-0.288,0.369-0.577,0.545-0.858c-0.584-0.504-1.173-1.003-1.769-1.494C103.061,4.108,102.748,3.862,102.438,3.613z"/>
		<path fill="#F28E00" d="M120.179,24.244c0.005-0.026-0.234,0.062-0.647,0.229c0.104,0.143,0.209,0.284,0.312,0.428
			C119.956,24.679,120.068,24.473,120.179,24.244z"/>
		<path fill="#F28E00" d="M109.366,12.542c0.102,0.103,0.202,0.208,0.303,0.311C109.836,12.546,109.712,12.46,109.366,12.542z"/>
		<path fill="#F28E00" d="M100.666,4.772c1.145,0.91,2.271,1.84,3.375,2.798c0.187-0.289,0.37-0.573,0.551-0.856
			c-0.997-0.862-2.014-1.701-3.043-2.524C101.25,4.384,100.958,4.578,100.666,4.772z"/>
		<path fill="#F28F00" d="M109.055,13.668c0.145-0.175,0.282-0.344,0.401-0.496c0.099-0.127,0.166-0.23,0.214-0.319
			c-0.102-0.103-0.201-0.208-0.303-0.311c-0.242,0.058-0.597,0.2-1.026,0.398C108.581,13.18,108.817,13.425,109.055,13.668z"/>
		<path fill="#F28F00" d="M119.844,24.9c-0.103-0.144-0.208-0.285-0.312-0.428c-0.257,0.104-0.586,0.238-0.977,0.399
			c0.256,0.351,0.514,0.699,0.765,1.053C119.496,25.598,119.67,25.246,119.844,24.9z"/>
		<path fill="#F28F00" d="M99.804,5.348c1.253,0.993,2.482,2.016,3.686,3.067c0.187-0.284,0.368-0.564,0.55-0.845
			c-1.103-0.958-2.23-1.888-3.375-2.798C100.376,4.964,100.087,5.157,99.804,5.348z"/>
		<path fill="#F29000" d="M119.314,25.937c-0.252-0.356-0.511-0.708-0.768-1.062c-0.288,0.119-0.601,0.247-0.951,0.39
			c0.397,0.542,0.79,1.086,1.176,1.636C118.952,26.583,119.134,26.273,119.314,25.937z"/>
		<path fill="#F29000" d="M108.4,14.439c0.239-0.276,0.458-0.533,0.655-0.771c-0.238-0.243-0.474-0.488-0.714-0.728
			c-0.287,0.133-0.608,0.292-0.959,0.472C107.724,13.751,108.062,14.095,108.4,14.439z"/>
		<path fill="#F29000" d="M98.936,5.942c1.361,1.071,2.69,2.18,3.991,3.32c0.188-0.283,0.377-0.566,0.562-0.848
			c-1.204-1.051-2.432-2.074-3.686-3.067C99.51,5.547,99.224,5.745,98.936,5.942z"/>
		<path fill="#F29100" d="M107.733,15.196c0.235-0.264,0.458-0.517,0.667-0.757c-0.338-0.344-0.676-0.688-1.019-1.027
			c-0.296,0.153-0.607,0.316-0.939,0.495C106.876,14.332,107.307,14.762,107.733,15.196z"/>
		<path fill="#F29100" d="M118.765,26.912c-0.387-0.552-0.78-1.1-1.178-1.644c-0.292,0.119-0.609,0.247-0.938,0.38
			c0.534,0.723,1.057,1.455,1.571,2.193C118.402,27.543,118.583,27.229,118.765,26.912z"/>
		<path fill="#F29100" d="M98.047,6.556c0.712,0.555,1.418,1.117,2.114,1.692c0.741,0.611,1.471,1.236,2.194,1.869
			c0.192-0.285,0.382-0.569,0.571-0.854c-1.301-1.14-2.63-2.249-3.991-3.32C98.639,6.147,98.338,6.352,98.047,6.556z"/>
		<path fill="#F39200" d="M107.058,15.946c0.234-0.258,0.459-0.509,0.675-0.75c-0.426-0.434-0.856-0.864-1.291-1.29
			c-0.296,0.16-0.607,0.33-0.924,0.505C106.037,14.917,106.551,15.429,107.058,15.946z"/>
		<path fill="#F39200" d="M118.219,27.842c-0.514-0.738-1.037-1.47-1.571-2.193c-0.308,0.124-0.63,0.252-0.966,0.385
			c0.667,0.899,1.317,1.812,1.953,2.735C117.831,28.471,118.025,28.16,118.219,27.842z"/>
		<path fill="#F39200" d="M98.046,6.557c-0.292,0.204-0.573,0.407-0.859,0.61c0.184,0.142,0.37,0.28,0.552,0.424
			c1.381,1.085,2.729,2.21,4.048,3.368c0.19-0.28,0.38-0.561,0.569-0.842c-0.723-0.633-1.453-1.258-2.194-1.869
			C99.465,7.673,98.758,7.111,98.046,6.557z"/>
		<path fill="#F39300" d="M106.38,16.694c0.232-0.255,0.459-0.505,0.678-0.748c-0.507-0.518-1.021-1.029-1.54-1.535
			c-0.3,0.166-0.606,0.336-0.919,0.51C105.201,15.505,105.794,16.096,106.38,16.694z"/>
		<path fill="#F39300" d="M117.636,28.768c-0.636-0.923-1.286-1.835-1.953-2.735c-0.313,0.124-0.636,0.25-0.97,0.38
			c0.794,1.063,1.563,2.146,2.313,3.243C117.229,29.368,117.433,29.078,117.636,28.768z"/>
		<path fill="#F39300" d="M97.187,7.167c-0.287,0.204-0.576,0.409-0.856,0.612c0.262,0.202,0.526,0.399,0.786,0.604
			c1.399,1.099,2.763,2.24,4.097,3.414c0.191-0.279,0.383-0.556,0.574-0.837c-1.319-1.158-2.667-2.283-4.048-3.368
			C97.557,7.447,97.37,7.309,97.187,7.167z"/>
		<path fill="#F39400" d="M96.33,7.779c-0.281,0.203-0.555,0.405-0.83,0.606c1.764,1.353,3.479,2.766,5.141,4.237
			c0.19-0.273,0.38-0.549,0.572-0.827c-1.334-1.174-2.698-2.315-4.097-3.414C96.856,8.178,96.591,7.98,96.33,7.779z"/>
		<path fill="#F39400" d="M105.698,17.441c0.232-0.254,0.458-0.502,0.682-0.748c-0.586-0.598-1.179-1.189-1.781-1.772
			c-0.302,0.169-0.607,0.339-0.916,0.513C104.366,16.093,105.036,16.763,105.698,17.441z"/>
		<path fill="#F39400" d="M117.026,29.656c-0.75-1.097-1.52-2.18-2.313-3.243c-0.324,0.125-0.655,0.252-0.995,0.381
			c0.918,1.224,1.808,2.47,2.667,3.738C116.599,30.253,116.812,29.958,117.026,29.656z"/>
		<path fill="#F39400" d="M116.376,30.543c-0.858-1.271-1.748-2.52-2.666-3.746c-0.32,0.122-0.647,0.244-0.979,0.366
			c1.036,1.371,2.036,2.771,2.996,4.199C115.944,31.104,116.16,30.824,116.376,30.543z"/>
		<path fill="#F39400" d="M105.018,18.187c0.229-0.251,0.458-0.5,0.681-0.745c-0.662-0.679-1.333-1.348-2.015-2.007
			c-0.304,0.171-0.61,0.342-0.916,0.513C103.531,16.681,104.28,17.429,105.018,18.187z"/>
		<path fill="#F39400" d="M94.658,9.009c1.857,1.415,3.659,2.897,5.403,4.445c0.192-0.273,0.386-0.551,0.581-0.831
			c-1.662-1.471-3.377-2.885-5.141-4.237C95.216,8.594,94.935,8.802,94.658,9.009z"/>
		<path fill="#F39500" d="M115.717,31.375c-0.959-1.432-1.958-2.835-2.993-4.208c-0.319,0.118-0.643,0.235-0.971,0.353
			c1.143,1.501,2.243,3.036,3.294,4.607C115.271,31.883,115.495,31.64,115.717,31.375z"/>
		<path fill="#F39500" d="M104.339,18.931c0.228-0.25,0.454-0.499,0.678-0.744c-0.738-0.758-1.486-1.506-2.25-2.239
			c-0.31,0.174-0.618,0.345-0.923,0.515C102.693,17.269,103.522,18.094,104.339,18.931z"/>
		<path fill="#F39500" d="M93.804,9.651c0.488,0.369,0.975,0.739,1.456,1.118c1.439,1.131,2.84,2.308,4.209,3.521
			c0.196-0.275,0.392-0.551,0.592-0.835c-1.744-1.547-3.546-3.03-5.403-4.445C94.37,9.224,94.084,9.438,93.804,9.651z"/>
		<path fill="#F39600" d="M93.803,9.651c-0.281,0.213-0.554,0.423-0.827,0.634c0.558,0.418,1.112,0.843,1.66,1.274
			c1.452,1.141,2.865,2.329,4.244,3.554c0.194-0.269,0.391-0.544,0.589-0.824c-1.369-1.212-2.77-2.39-4.209-3.521
			C94.779,10.391,94.292,10.02,93.803,9.651z"/>
		<path fill="#F39600" d="M115.047,32.126c-1.051-1.571-2.151-3.106-3.294-4.607c-0.33,0.118-0.664,0.235-1,0.352
			c1.246,1.624,2.439,3.289,3.575,4.996C114.569,32.631,114.809,32.386,115.047,32.126z"/>
		<path fill="#F39600" d="M103.662,19.679c0.227-0.251,0.453-0.5,0.678-0.748c-0.817-0.837-1.646-1.662-2.495-2.468
			c-0.314,0.174-0.625,0.346-0.929,0.512C101.85,17.856,102.765,18.759,103.662,19.679z"/>
		<path fill="#F39700" d="M116.453,38.018c0.292-0.366,0.147-0.437-0.289-0.321c0.078,0.132,0.157,0.264,0.234,0.396
			C116.417,38.066,116.434,38.044,116.453,38.018z"/>
		<path fill="#F39700" d="M92.975,10.286c-0.277,0.214-0.556,0.428-0.826,0.639c0.627,0.468,1.25,0.943,1.865,1.427
			c1.462,1.148,2.884,2.346,4.271,3.581c0.193-0.265,0.394-0.542,0.594-0.82c-1.379-1.225-2.792-2.413-4.244-3.554
			C94.087,11.129,93.534,10.705,92.975,10.286z"/>
		<path fill="#F39700" d="M114.329,32.867c-1.136-1.707-2.329-3.373-3.575-4.996c-0.334,0.116-0.669,0.229-1.007,0.342
			c1.342,1.735,2.621,3.52,3.835,5.352C113.832,33.345,114.081,33.11,114.329,32.867z"/>
		<path fill="#F39700" d="M102.986,20.429c0.225-0.251,0.45-0.501,0.676-0.75c-0.897-0.92-1.812-1.822-2.746-2.704
			c-0.32,0.175-0.634,0.345-0.936,0.505C101.005,18.439,102.007,19.422,102.986,20.429z"/>
		<path fill="#F39800" d="M113.582,33.564c-1.214-1.832-2.494-3.617-3.835-5.352c-0.343,0.114-0.688,0.226-1.033,0.336
			c1.43,1.836,2.787,3.73,4.073,5.677C113.052,34.02,113.317,33.796,113.582,33.564z"/>
		<path fill="#F39800" d="M102.312,21.185c0.223-0.252,0.448-0.504,0.673-0.756c-0.979-1.006-1.981-1.989-3.006-2.949
			c-0.331,0.176-0.644,0.338-0.945,0.49C100.155,19.013,101.248,20.085,102.312,21.185z"/>
		<path fill="#F39800" d="M116.398,38.092c-0.077-0.132-0.157-0.264-0.234-0.396c-0.245,0.065-0.583,0.189-0.989,0.354
			c0.186,0.316,0.375,0.63,0.557,0.948C115.95,38.701,116.166,38.407,116.398,38.092z"/>
		<path fill="#F39800" d="M92.147,10.927c-0.271,0.212-0.535,0.422-0.799,0.632c2.194,1.63,4.31,3.361,6.343,5.181
			c0.195-0.262,0.391-0.526,0.595-0.806c-1.387-1.235-2.809-2.433-4.271-3.581C93.399,11.869,92.775,11.395,92.147,10.927z"/>
		<path fill="#F49900" d="M101.646,21.944c0.22-0.252,0.441-0.505,0.667-0.759c-1.064-1.1-2.158-2.172-3.277-3.216
			c-0.35,0.177-0.677,0.335-0.974,0.47C99.289,19.574,100.485,20.742,101.646,21.944z"/>
		<path fill="#F49900" d="M115.718,39.018c-0.184-0.322-0.374-0.641-0.562-0.96c-0.277,0.113-0.584,0.244-0.917,0.389
			c0.284,0.479,0.564,0.96,0.838,1.445C115.284,39.609,115.498,39.317,115.718,39.018z"/>
		<path fill="#F49900" d="M112.774,34.234c-1.284-1.949-2.64-3.846-4.068-5.684c-0.34,0.108-0.68,0.213-1.019,0.314
			c1.509,1.921,2.936,3.911,4.284,5.956C112.24,34.639,112.507,34.44,112.774,34.234z"/>
		<path fill="#F49900" d="M90.532,12.211c2.27,1.676,4.456,3.457,6.552,5.337c0.196-0.259,0.397-0.526,0.606-0.809
			c-2.033-1.82-4.149-3.551-6.343-5.181C91.071,11.778,90.8,11.995,90.532,12.211z"/>
		<path fill="#F49A00" d="M100.987,22.708c0.215-0.253,0.436-0.508,0.659-0.764c-1.161-1.202-2.357-2.371-3.584-3.505
			c-0.415,0.188-0.768,0.329-1.046,0.411C98.38,20.093,99.703,21.382,100.987,22.708z"/>
		<path fill="#F49A00" d="M115.063,39.911c-0.276-0.488-0.557-0.974-0.842-1.457c-0.282,0.123-0.58,0.254-0.891,0.392
			c0.377,0.634,0.747,1.274,1.108,1.918C114.637,40.492,114.85,40.201,115.063,39.911z"/>
		<path fill="#F49A00" d="M111.959,34.829c-1.347-2.047-2.771-4.038-4.279-5.961c-0.344,0.103-0.687,0.203-1.027,0.298
			c1.58,1.99,3.074,4.051,4.478,6.177C111.408,35.182,111.685,35.014,111.959,34.829z"/>
		<path fill="#F49A00" d="M89.703,12.882c1.383,1.012,2.739,2.059,4.058,3.148c0.925,0.763,1.831,1.547,2.724,2.347
			c0.066-0.112,0.151-0.239,0.267-0.389c0.106-0.138,0.222-0.294,0.333-0.44c-2.096-1.88-4.283-3.662-6.552-5.337
			C90.253,12.436,89.973,12.661,89.703,12.882z"/>
		<path fill="#F49A00" d="M114.438,40.765c-0.361-0.645-0.73-1.284-1.108-1.918c-0.302,0.133-0.615,0.272-0.936,0.414
			c0.474,0.794,0.937,1.597,1.385,2.408C113.993,41.375,114.208,41.08,114.438,40.765z"/>
		<path fill="#F49A00" d="M111.131,35.342c-1.404-2.125-2.898-4.187-4.478-6.177c-0.363,0.102-0.723,0.198-1.079,0.289
			c1.645,2.049,3.2,4.171,4.655,6.367C110.531,35.674,110.832,35.516,111.131,35.342z"/>
		<path fill="#F49A00" d="M83.455,9.338c-0.269,0.024-0.523,0.052-0.785,0.078c0.154,0.093,0.31,0.184,0.464,0.277
			C83.241,9.573,83.349,9.453,83.455,9.338z"/>
		<path fill="#F49A00" d="M89.7,12.884c-0.276,0.226-0.543,0.448-0.811,0.669c1.437,1.045,2.853,2.117,4.221,3.247
			c2.535,2.089,4.932,4.334,7.211,6.695c0.215-0.258,0.438-0.521,0.665-0.787c-1.284-1.327-2.606-2.616-3.972-3.858
			c-0.609,0.179-0.854,0.074-0.53-0.473c-0.893-0.799-1.798-1.584-2.724-2.347C92.441,14.941,91.084,13.896,89.7,12.884z"/>
		<path fill="#F49B00" d="M110.229,35.821c-1.455-2.196-3.01-4.318-4.655-6.367c-0.363,0.093-0.723,0.181-1.077,0.261
			c1.699,2.093,3.301,4.267,4.799,6.518C109.609,36.109,109.919,35.972,110.229,35.821z"/>
		<path fill="#F49B00" d="M113.779,41.667c-0.449-0.811-0.911-1.613-1.385-2.408c-0.304,0.134-0.615,0.27-0.929,0.405
			c0.571,0.954,1.13,1.917,1.665,2.894C113.338,42.273,113.554,41.977,113.779,41.667z"/>
		<path fill="#F49B00" d="M83.129,9.698c-0.157-0.096-0.318-0.185-0.475-0.28c-0.575,0.057-1.137,0.118-1.684,0.183
			c0.496,0.288,1.001,0.561,1.491,0.858C82.687,10.196,82.91,9.941,83.129,9.698z"/>
		<path fill="#F49B00" d="M93.111,16.8c-1.369-1.129-2.786-2.201-4.224-3.245c-0.271,0.225-0.536,0.446-0.797,0.666
			c1.494,1.079,2.964,2.188,4.383,3.359c2.535,2.089,4.93,4.337,7.207,6.702c0.207-0.258,0.419-0.52,0.642-0.787
			C98.043,21.135,95.646,18.889,93.111,16.8z"/>
		<path fill="#F49C00" d="M109.297,36.233c-1.498-2.251-3.1-4.425-4.799-6.518c-0.38,0.086-0.752,0.163-1.118,0.231
			c1.747,2.128,3.388,4.346,4.922,6.641C108.635,36.483,108.966,36.364,109.297,36.233z"/>
		<path fill="#F49C00" d="M82.455,10.466c-0.493-0.299-1.001-0.574-1.501-0.863c-0.536,0.064-1.061,0.132-1.574,0.205
			c0.819,0.461,1.641,0.918,2.443,1.406C82.035,10.958,82.246,10.708,82.455,10.466z"/>
		<path fill="#F49C00" d="M113.13,42.559c-0.534-0.978-1.093-1.94-1.665-2.894c-0.317,0.136-0.637,0.271-0.957,0.404
			c0.674,1.123,1.324,2.261,1.946,3.417C112.668,43.192,112.895,42.881,113.13,42.559z"/>
		<path fill="#F49C00" d="M92.474,17.581c-1.42-1.17-2.892-2.278-4.386-3.356c-0.26,0.219-0.521,0.438-0.772,0.652
			c4.222,3.04,8.148,6.458,11.734,10.21c0.199-0.261,0.412-0.53,0.631-0.804C97.404,21.918,95.008,19.67,92.474,17.581z"/>
		<path fill="#F49D00" d="M108.288,36.592c-1.532-2.296-3.17-4.514-4.914-6.644c-0.395,0.074-0.777,0.134-1.149,0.186
			c1.795,2.156,3.488,4.4,5.061,6.733C107.621,36.788,107.954,36.696,108.288,36.592z"/>
		<path fill="#F49D00" d="M112.438,43.509c-0.623-1.161-1.274-2.305-1.949-3.433c-0.31,0.128-0.618,0.252-0.924,0.372
			c0.778,1.292,1.515,2.611,2.224,3.948C111.994,44.117,112.211,43.819,112.438,43.509z"/>
		<path fill="#F49D00" d="M81.823,11.214c-0.802-0.487-1.624-0.945-2.443-1.406c-0.543,0.077-1.076,0.16-1.597,0.249
			c1.149,0.623,2.28,1.274,3.396,1.948C81.394,11.736,81.609,11.472,81.823,11.214z"/>
		<path fill="#F49D00" d="M87.315,14.876c-0.268,0.229-0.53,0.454-0.788,0.676c4.295,3.073,8.283,6.542,11.916,10.357
			c0.188-0.265,0.389-0.539,0.606-0.823C95.463,21.334,91.538,17.916,87.315,14.876z"/>
		<path fill="#F49E00" d="M107.27,36.871c-1.569-2.333-3.254-4.581-5.045-6.737c-0.419,0.058-0.825,0.101-1.209,0.125
			c1.849,2.181,3.594,4.452,5.21,6.819C106.575,37.021,106.922,36.951,107.27,36.871z"/>
		<path fill="#F49E00" d="M111.772,44.42c-0.709-1.342-1.447-2.667-2.227-3.964c-0.31,0.121-0.616,0.235-0.915,0.342
			c0.887,1.462,1.713,2.963,2.509,4.483C111.339,45.011,111.55,44.724,111.772,44.42z"/>
		<path fill="#F49E00" d="M81.178,12.005c-1.116-0.674-2.247-1.325-3.396-1.948c-0.573,0.097-1.134,0.202-1.684,0.313
			c1.501,0.78,2.983,1.594,4.428,2.462C80.744,12.552,80.961,12.276,81.178,12.005z"/>
		<path fill="#F49E00" d="M86.528,15.552c-0.274,0.236-0.539,0.467-0.802,0.697c1.653,1.172,3.275,2.385,4.835,3.673
			c2.578,2.126,5.009,4.421,7.309,6.841c0.168-0.269,0.361-0.555,0.573-0.854C94.811,22.094,90.823,18.625,86.528,15.552z"/>
		<path fill="#F49E00" d="M80.521,12.841c-1.451-0.87-2.937-1.685-4.443-2.466c-0.515,0.105-1.023,0.217-1.522,0.337
			c1.824,0.914,3.614,1.885,5.356,2.93C80.113,13.371,80.316,13.104,80.521,12.841z"/>
		<path fill="#F49E00" d="M106.226,37.078c-1.617-2.367-3.361-4.639-5.21-6.819c-0.478,0.03-0.921,0.029-1.333,0
			c1.923,2.22,3.732,4.541,5.408,6.961C105.47,37.185,105.848,37.14,106.226,37.078z"/>
		<path fill="#F49E00" d="M111.139,45.281c-0.796-1.52-1.622-3.021-2.509-4.483c-0.339,0.121-0.668,0.23-0.984,0.326
			c1.004,1.645,1.935,3.338,2.823,5.058C110.678,45.902,110.901,45.604,111.139,45.281z"/>
		<path fill="#F49E00" d="M90.561,19.922c-1.561-1.287-3.184-2.5-4.838-3.671c-0.264,0.23-0.522,0.457-0.774,0.681
			c1.704,1.2,3.372,2.447,4.976,3.771c2.626,2.166,5.099,4.508,7.433,6.982c0.131-0.28,0.303-0.588,0.512-0.923
			C95.57,24.343,93.139,22.048,90.561,19.922z"/>
		<path fill="#F49F00" d="M110.468,46.181c-0.888-1.719-1.818-3.413-2.823-5.058c-0.363,0.109-0.708,0.2-1.026,0.266
			c1.135,1.843,2.186,3.741,3.171,5.678C110,46.799,110.228,46.501,110.468,46.181z"/>
		<path fill="#F49F00" d="M79.905,13.649c-1.748-1.045-3.542-2.019-5.371-2.933c-0.489,0.117-0.973,0.242-1.45,0.374
			c2.132,1.03,4.206,2.161,6.228,3.369C79.508,14.188,79.706,13.917,79.905,13.649z"/>
		<path fill="#F49F00" d="M105.09,37.22c-1.676-2.421-3.485-4.741-5.408-6.961c-0.676-0.048-1.25-0.184-1.697-0.421
			c2.12,2.361,4.091,4.855,5.922,7.457C104.302,37.28,104.697,37.258,105.09,37.22z"/>
		<path fill="#F49F00" d="M89.925,20.703c-1.605-1.323-3.275-2.569-4.979-3.769c-0.262,0.231-0.52,0.46-0.771,0.684
			c1.747,1.222,3.454,2.496,5.095,3.851c2.773,2.286,5.38,4.764,7.822,7.397c-0.065-0.285,0.035-0.687,0.266-1.18
			C95.024,25.211,92.551,22.869,89.925,20.703z"/>
		<path fill="#F5A000" d="M79.307,14.467c-2.027-1.209-4.104-2.341-6.242-3.371c-0.467,0.13-0.931,0.267-1.39,0.412
			c2.426,1.135,4.787,2.383,7.072,3.749C78.93,14.993,79.117,14.729,79.307,14.467z"/>
		<path fill="#F5A000" d="M109.791,47.068c-0.985-1.937-2.036-3.835-3.171-5.678c-0.437,0.09-0.826,0.135-1.146,0.117
			c1.299,2.084,2.501,4.233,3.606,6.441C109.301,47.686,109.535,47.396,109.791,47.068z"/>
		<path fill="#F5A000" d="M89.27,21.469c-1.642-1.353-3.35-2.627-5.097-3.849c-0.255,0.227-0.506,0.452-0.749,0.67
			c4.907,3.423,9.417,7.374,13.426,11.794c2.078,2.285,4.006,4.706,5.808,7.222c0.417,0.007,0.834,0.003,1.25-0.012
			c-1.831-2.602-3.802-5.096-5.922-7.457c-0.382-0.203-0.682-0.473-0.857-0.839c-0.019-0.039-0.025-0.087-0.036-0.132
			C94.649,26.233,92.042,23.755,89.27,21.469z"/>
		<path fill="#F5A100" d="M109.062,47.97c-1.105-2.216-2.308-4.374-3.609-6.465c-0.088-0.006-0.172-0.014-0.25-0.03
			c-0.364-0.073-0.714-0.127-1.07-0.19c1.538,2.405,2.954,4.894,4.227,7.469C108.581,48.524,108.813,48.265,109.062,47.97z"/>
		<path fill="#F5A100" d="M78.747,15.257c-2.285-1.366-4.646-2.614-7.072-3.749c-0.47,0.149-0.937,0.306-1.402,0.471
			c2.72,1.227,5.362,2.595,7.906,4.113C78.364,15.814,78.553,15.536,78.747,15.257z"/>
		<path fill="#F5A100" d="M83.424,18.29c-0.262,0.236-0.518,0.467-0.765,0.691c4.922,3.412,9.441,7.364,13.453,11.789
			c1.875,2.063,3.629,4.236,5.278,6.492c0.419,0.024,0.837,0.037,1.254,0.044c-1.797-2.517-3.722-4.937-5.794-7.222
			C92.841,25.664,88.331,21.713,83.424,18.29z"/>
		<path fill="#F5A200" d="M108.341,48.772c-1.272-2.583-2.689-5.079-4.229-7.492c-0.434-0.076-0.866-0.15-1.289-0.212
			c1.763,2.684,3.368,5.479,4.792,8.381C107.854,49.252,108.092,49.029,108.341,48.772z"/>
		<path fill="#F5A200" d="M78.18,16.092c-2.544-1.518-5.186-2.886-7.906-4.113c-0.465,0.166-0.929,0.34-1.393,0.524
			c3.016,1.306,5.93,2.799,8.731,4.464C77.795,16.678,77.984,16.386,78.18,16.092z"/>
		<path fill="#F5A200" d="M82.659,18.981c-0.269,0.244-0.529,0.48-0.782,0.71c1.881,1.292,3.709,2.656,5.465,4.105
			c4.769,3.93,9.059,8.421,12.767,13.374c0.423,0.036,0.846,0.067,1.268,0.091c-1.644-2.255-3.395-4.428-5.265-6.491
			C92.1,26.345,87.581,22.394,82.659,18.981z"/>
		<path fill="#F5A300" d="M77.607,16.976c-2.807-1.665-5.726-3.16-8.747-4.464c-0.424,0.168-0.849,0.346-1.274,0.531
			c3.292,1.375,6.461,2.979,9.5,4.784C77.252,17.546,77.426,17.262,77.607,16.976z"/>
		<path fill="#F5A300" d="M107.615,49.449c-1.423-2.902-3.028-5.697-4.792-8.381c-0.442-0.065-0.879-0.124-1.309-0.174
			c1.961,2.913,3.723,5.971,5.273,9.151C107.077,49.864,107.348,49.67,107.615,49.449z"/>
		<path fill="#F5A300" d="M87.342,23.797c-1.757-1.448-3.585-2.812-5.468-4.103c-0.262,0.238-0.515,0.469-0.759,0.691
			c1.929,1.316,3.798,2.712,5.594,4.196c4.463,3.679,8.488,7.866,12.014,12.457c0.462,0.048,0.924,0.093,1.385,0.132
			C96.401,32.218,92.111,27.727,87.342,23.797z"/>
		<path fill="#F5A300" d="M106.788,50.045c-1.55-3.18-3.312-6.238-5.273-9.151c-0.448-0.052-0.884-0.09-1.318-0.126
			c2.137,3.098,4.053,6.359,5.712,9.771C106.228,50.374,106.519,50.213,106.788,50.045z"/>
		<path fill="#F5A300" d="M77.08,17.835c-3.044-1.805-6.221-3.409-9.519-4.782c-0.415,0.181-0.833,0.371-1.253,0.568
			c3.569,1.438,7.004,3.135,10.277,5.08C76.741,18.417,76.906,18.129,77.08,17.835z"/>
		<path fill="#F5A300" d="M86.709,24.582c-1.797-1.482-3.667-2.879-5.597-4.193c-0.264,0.24-0.517,0.471-0.761,0.691
			c1.972,1.336,3.878,2.761,5.709,4.273c4.158,3.426,7.926,7.304,11.264,11.536c0.467,0.051,0.933,0.101,1.399,0.149
			C95.197,32.448,91.172,28.26,86.709,24.582z"/>
		<path fill="#F5A400" d="M76.581,18.71c-3.28-1.945-6.721-3.642-10.297-5.077c-0.379,0.178-0.762,0.366-1.147,0.558
			c3.829,1.495,7.507,3.29,10.997,5.374C76.271,19.286,76.42,19.001,76.581,18.71z"/>
		<path fill="#F5A400" d="M105.909,50.538c-1.659-3.411-3.575-6.672-5.712-9.771c-0.448-0.038-0.89-0.069-1.323-0.091
			c2.297,3.259,4.351,6.702,6.107,10.318C105.321,50.833,105.628,50.682,105.909,50.538z"/>
		<path fill="#F5A400" d="M86.061,25.353c-1.833-1.511-3.739-2.937-5.712-4.271c-0.262,0.238-0.509,0.46-0.748,0.673
			c4.97,3.353,9.51,7.294,13.523,11.721c0.961,1.057,1.882,2.15,2.781,3.262c0.473,0.048,0.947,0.099,1.419,0.15
			C93.986,32.656,90.219,28.779,86.061,25.353z"/>
		<path fill="#F5A500" d="M76.133,19.564c-3.489-2.083-7.167-3.878-10.997-5.374c-0.393,0.196-0.792,0.401-1.192,0.613
			c4.11,1.547,8.045,3.45,11.765,5.679C75.833,20.188,75.977,19.88,76.133,19.564z"/>
		<path fill="#F5A500" d="M104.957,51.006c-1.751-3.621-3.803-7.066-6.097-10.33c-0.424-0.021-0.848-0.042-1.258-0.049
			c2.449,3.396,4.624,7.002,6.469,10.802C104.394,51.274,104.684,51.137,104.957,51.006z"/>
		<path fill="#F5A500" d="M79.601,21.755c-0.278,0.249-0.54,0.478-0.787,0.692c4.991,3.341,9.55,7.277,13.569,11.712
			c0.727,0.799,1.432,1.619,2.123,2.45c0.464,0.038,0.928,0.082,1.392,0.128c-0.896-1.111-1.815-2.204-2.773-3.261
			C89.111,29.049,84.57,25.108,79.601,21.755z"/>
		<path fill="#F5A600" d="M75.709,20.482c-3.72-2.229-7.654-4.132-11.765-5.679c-0.407,0.215-0.819,0.437-1.237,0.668
			c4.43,1.595,8.657,3.612,12.636,6.002C75.44,21.162,75.562,20.831,75.709,20.482z"/>
		<path fill="#F5A600" d="M104.047,51.439c-1.84-3.803-4.014-7.412-6.458-10.812c-0.408-0.007-0.803,0-1.197,0.006
			c2.588,3.512,4.869,7.264,6.795,11.221C103.492,51.706,103.783,51.565,104.047,51.439z"/>
		<path fill="#F5A600" d="M78.814,22.447c-0.3,0.26-0.579,0.494-0.833,0.698c2.131,1.41,4.192,2.918,6.157,4.541
			c3.246,2.674,6.24,5.639,8.973,8.833c0.465,0.022,0.93,0.053,1.395,0.091c-0.69-0.833-1.397-1.65-2.123-2.45
			C88.364,29.724,83.805,25.788,78.814,22.447z"/>
		<path fill="#F6A700" d="M75.341,21.484c-3.986-2.391-8.222-4.405-12.659-5.998c-0.38,0.211-0.764,0.426-1.154,0.651
			c4.781,1.654,9.338,3.788,13.595,6.373C75.153,22.201,75.227,21.857,75.341,21.484z"/>
		<path fill="#F6A700" d="M103.187,51.854c-1.926-3.958-4.207-7.709-6.795-11.221c-0.413,0.007-0.817,0.022-1.216,0.043
			c2.724,3.622,5.107,7.513,7.107,11.625C102.604,52.141,102.906,51.992,103.187,51.854z"/>
		<path fill="#F6A700" d="M84.138,27.685c-1.967-1.621-4.029-3.128-6.162-4.537c-0.326,0.261-0.613,0.473-0.865,0.635
			c2.214,1.448,4.353,3.001,6.387,4.68c2.966,2.444,5.717,5.135,8.251,8.021c0.454,0.001,0.908,0.012,1.362,0.034
			C90.377,33.324,87.383,30.359,84.138,27.685z"/>
		<path fill="#F6A800" d="M102.284,52.302c-2-4.112-4.384-8.003-7.107-11.625c-0.412,0.021-0.819,0.047-1.216,0.082
			c2.857,3.726,5.355,7.739,7.426,12.001C101.702,52.597,102.001,52.444,102.284,52.302z"/>
		<path fill="#F6A800" d="M83.498,28.463c-2.036-1.678-4.176-3.23-6.393-4.676c-0.419,0.27-0.742,0.403-0.961,0.364
			c-0.814-0.144-1.104-0.742-1.022-1.631c-4.264-2.585-8.829-4.718-13.618-6.369c-0.371,0.214-0.746,0.432-1.128,0.66
			c8.284,2.751,15.892,6.991,22.48,12.43c2.708,2.231,5.24,4.666,7.585,7.273c0.436-0.023,0.872-0.03,1.308-0.029
			C89.215,33.598,86.463,30.907,83.498,28.463z"/>
		<path fill="#F6A800" d="M101.386,52.76c-2.071-4.262-4.569-8.275-7.426-12.001c-0.407,0.036-0.812,0.074-1.204,0.123
			c2.981,3.822,5.582,7.955,7.715,12.359C100.792,53.07,101.097,52.91,101.386,52.76z"/>
		<path fill="#F6A800" d="M82.856,29.24c-6.597-5.436-14.212-9.671-22.504-12.416c-0.03,0.019-0.06,0.035-0.09,0.053
			c-0.322,0.192-0.614,0.394-0.912,0.594c11.566,3.716,21.807,10.394,29.82,19.15c0.041-0.005,0.083-0.014,0.124-0.018
			c0.382-0.042,0.765-0.069,1.147-0.089C88.097,33.906,85.564,31.472,82.856,29.24z"/>
		<path fill="#F6A900" d="M100.448,53.253c-2.127-4.408-4.723-8.543-7.698-12.37c-0.389,0.049-0.767,0.108-1.142,0.169
			c3.096,3.902,5.786,8.14,7.976,12.668C99.884,53.556,100.172,53.4,100.448,53.253z"/>
		<path fill="#F6A900" d="M59.351,17.471c-0.354,0.238-0.69,0.48-1.013,0.728c11.463,3.544,21.625,10.047,29.615,18.605
			c0.408-0.075,0.814-0.136,1.218-0.183C81.157,27.864,70.917,21.187,59.351,17.471z"/>
		<path fill="#F6AA00" d="M101.962,61.313c-0.124-0.073-0.25-0.134-0.375-0.203c0.023,0.067,0.045,0.136,0.069,0.204
			C101.76,61.315,101.859,61.312,101.962,61.313z"/>
		<path fill="#F6AA00" d="M99.561,53.733c-2.183-4.532-4.868-8.773-7.958-12.68c-0.374,0.062-0.736,0.131-1.095,0.203
			c3.205,3.968,5.975,8.301,8.218,12.938C99.016,54.031,99.29,53.88,99.561,53.733z"/>
		<path fill="#F6AA00" d="M58.337,18.198c-0.351,0.27-0.688,0.542-1.007,0.822c7.706,2.28,14.84,5.895,21.117,10.599
			c2.992,2.238,5.776,4.733,8.353,7.429c0.384-0.095,0.768-0.175,1.152-0.245C79.962,28.246,69.801,21.743,58.337,18.198z"/>
		<path fill="#F6AB00" d="M101.657,61.314c-0.023-0.068-0.045-0.137-0.069-0.204c-0.431-0.237-0.862-0.454-1.293-0.648
			c0.104,0.283,0.198,0.57,0.299,0.855C100.945,61.311,101.299,61.31,101.657,61.314z"/>
		<path fill="#F6AB00" d="M98.725,54.194c-2.243-4.637-5.013-8.97-8.218-12.938c-0.372,0.075-0.736,0.155-1.092,0.242
			c3.304,4.028,6.145,8.452,8.432,13.192C98.15,54.517,98.442,54.352,98.725,54.194z"/>
		<path fill="#F6AB00" d="M78.448,29.619c-6.284-4.7-13.426-8.308-21.139-10.58c-0.293,0.257-0.581,0.517-0.851,0.781
			c8.839,2.526,16.93,6.831,23.835,12.531c1.898,1.564,3.696,3.241,5.408,5.004c0.365-0.112,0.731-0.216,1.099-0.307
			C84.224,34.352,81.439,31.857,78.448,29.619z"/>
		<path fill="#F6AC00" d="M97.847,54.69c-2.287-4.741-5.127-9.164-8.432-13.192c-0.367,0.088-0.728,0.181-1.078,0.28
			c3.397,4.082,6.307,8.583,8.633,13.418C97.269,55.022,97.566,54.85,97.847,54.69z"/>
		<path fill="#F6AC00" d="M100.594,61.317c-0.101-0.285-0.194-0.572-0.299-0.855c-0.438-0.198-0.872-0.381-1.298-0.543
			c0.184,0.477,0.371,0.952,0.544,1.434C99.89,61.336,100.239,61.322,100.594,61.317z"/>
		<path fill="#F6AC00" d="M80.293,32.351c-6.912-5.695-15.009-9.995-23.854-12.512c-0.27,0.264-0.536,0.529-0.786,0.799
			c8.912,2.465,17.064,6.765,24.002,12.493c1.746,1.439,3.41,2.973,4.997,4.583c0.347-0.128,0.696-0.25,1.049-0.359
			C83.989,35.592,82.191,33.915,80.293,32.351z"/>
		<path fill="#F6AC00" d="M99.542,61.352c-0.173-0.482-0.36-0.957-0.544-1.434c-0.448-0.171-0.88-0.322-1.3-0.462
			c0.261,0.648,0.524,1.295,0.764,1.954C98.816,61.384,99.179,61.368,99.542,61.352z"/>
		<path fill="#F6AC00" d="M96.97,55.196c-2.326-4.835-5.236-9.336-8.633-13.418c-0.365,0.103-0.723,0.209-1.07,0.322
			c3.478,4.13,6.449,8.7,8.803,13.623C96.382,55.539,96.678,55.366,96.97,55.196z"/>
		<path fill="#F6AC00" d="M79.655,33.131c-6.945-5.723-15.103-10.017-24.021-12.473c-0.235,0.254-0.458,0.511-0.68,0.769
			c11.024,2.979,20.873,8.823,28.689,16.696c0.333-0.145,0.667-0.282,1.008-0.408C83.065,36.104,81.401,34.57,79.655,33.131z"/>
		<path fill="#F7AD00" d="M98.419,61.415c-0.241-0.665-0.504-1.318-0.767-1.973c-0.418-0.139-0.823-0.27-1.197-0.387
			c0.338,0.809,0.663,1.625,0.967,2.451C97.752,61.472,98.083,61.44,98.419,61.415z"/>
		<path fill="#F7AD00" d="M96.044,55.738c-2.346-4.927-5.306-9.504-8.776-13.639c-0.35,0.114-0.695,0.23-1.027,0.353
			c3.553,4.166,6.579,8.793,8.959,13.79C95.488,56.068,95.77,55.9,96.044,55.738z"/>
		<path fill="#F7AD00" d="M54.955,21.427c-0.242,0.281-0.477,0.563-0.706,0.847c10.911,2.863,20.67,8.578,28.428,16.304
			c0.318-0.16,0.64-0.312,0.967-0.455C75.828,30.25,65.979,24.406,54.955,21.427z"/>
		<path fill="#F7AE00" d="M97.385,61.509c-0.306-0.833-0.634-1.653-0.974-2.468c-0.439-0.138-0.839-0.263-1.192-0.384
			c0.425,0.977,0.827,1.966,1.202,2.968C96.74,61.583,97.06,61.543,97.385,61.509z"/>
		<path fill="#F7AE00" d="M94.882,56.431c0.102-0.061,0.191-0.113,0.291-0.173c-2.372-5-5.388-9.634-8.933-13.805
			c-0.337,0.124-0.662,0.254-0.981,0.385c3.625,4.195,6.703,8.873,9.108,13.936C94.517,56.665,94.679,56.553,94.882,56.431z"/>
		<path fill="#F7AE00" d="M53.521,23.189c9.016,2.278,17.249,6.527,24.207,12.271c1.393,1.147,2.727,2.361,4.014,3.623
			c0.305-0.178,0.617-0.345,0.935-0.505c-7.757-7.726-17.517-13.441-28.428-16.304C54.001,22.579,53.758,22.883,53.521,23.189z"/>
		<path fill="#F7AF00" d="M96.421,61.625c-0.375-1.002-0.777-1.991-1.202-2.968c-0.737-0.251-1.251-0.486-1.451-0.763
			c0.584,1.27,1.129,2.561,1.627,3.876C95.732,61.715,96.077,61.67,96.421,61.625z"/>
		<path fill="#F7AF00" d="M94.367,56.773c-2.405-5.063-5.484-9.741-9.108-13.936c-0.333,0.137-0.654,0.278-0.968,0.422
			c3.771,4.32,6.943,9.171,9.387,14.433C93.641,57.441,93.85,57.146,94.367,56.773z"/>
		<path fill="#F7AF00" d="M53.502,23.213c-0.221,0.285-0.441,0.569-0.659,0.854c9.038,2.213,17.292,6.431,24.248,12.174
			c1.305,1.075,2.555,2.212,3.765,3.39c0.287-0.192,0.583-0.372,0.885-0.548c-1.287-1.262-2.622-2.476-4.014-3.623
			C70.763,29.723,62.523,25.481,53.502,23.213z"/>
		<path fill="#F7B000" d="M95.395,61.77c-0.498-1.315-1.043-2.606-1.627-3.876c-0.047-0.064-0.081-0.131-0.091-0.201
			c-2.444-5.262-5.615-10.113-9.387-14.433c-0.324,0.148-0.637,0.299-0.94,0.453c4.693,5.327,8.455,11.489,11.033,18.239
			C94.718,61.887,95.053,61.824,95.395,61.77z"/>
		<path fill="#F7B000" d="M52.825,24.091c-0.219,0.286-0.438,0.571-0.657,0.854c9.061,2.147,17.333,6.335,24.286,12.077
			c1.235,1.018,2.419,2.094,3.568,3.206c0.269-0.208,0.548-0.405,0.834-0.597c-1.21-1.178-2.46-2.315-3.765-3.39
			C70.128,30.505,61.869,26.295,52.825,24.091z"/>
		<path fill="#F7B000" d="M94.383,61.951c-2.578-6.75-6.34-12.912-11.033-18.239c-0.319,0.162-0.628,0.324-0.925,0.489
			c4.646,5.24,8.37,11.312,10.925,17.965C93.691,62.09,94.034,62.018,94.383,61.951z"/>
		<path fill="#F7B000" d="M52.149,24.969c-0.207,0.267-0.414,0.534-0.625,0.797c10.628,2.452,20.156,7.773,27.727,15.112
			c0.249-0.223,0.502-0.443,0.771-0.651c-1.149-1.112-2.333-2.188-3.568-3.206C69.494,31.287,61.215,27.106,52.149,24.969z"/>
		<path fill="#F7B100" d="M93.315,62.174c-2.543-6.654-6.256-12.727-10.89-17.973c-0.308,0.17-0.604,0.341-0.888,0.513
			c4.6,5.152,8.286,11.13,10.821,17.683C92.672,62.318,92.993,62.246,93.315,62.174z"/>
		<path fill="#F7B100" d="M50.808,26.635c10.634,2.356,20.168,7.632,27.723,14.948c0.23-0.242,0.468-0.479,0.72-0.705
			c-7.571-7.339-17.099-12.66-27.727-15.112C51.29,26.06,51.052,26.349,50.808,26.635z"/>
		<path fill="#F7B200" d="M92.324,62.406c-2.523-6.555-6.2-12.535-10.788-17.692c-0.296,0.179-0.582,0.357-0.853,0.535
			c4.557,5.062,8.208,10.948,10.727,17.402C91.71,62.565,92.016,62.484,92.324,62.406z"/>
		<path fill="#F7B200" d="M49.993,27.545c8.274,1.728,15.891,5.25,22.422,10.145c1.918,1.435,3.733,2.998,5.454,4.658
			c0.208-0.263,0.428-0.518,0.663-0.765c-7.555-7.316-17.089-12.592-27.723-14.948C50.545,26.944,50.273,27.247,49.993,27.545z"/>
		<path fill="#F7B300" d="M91.41,62.65c-2.519-6.454-6.17-12.34-10.727-17.402c-0.294,0.193-0.573,0.383-0.839,0.57
			c4.501,4.976,8.107,10.769,10.597,17.122C90.76,62.841,91.082,62.743,91.41,62.65z"/>
		<path fill="#F7B300" d="M49.973,27.568c-0.268,0.285-0.549,0.562-0.838,0.835c9.278,1.822,17.739,5.933,24.759,11.731
			c1.171,0.964,2.293,1.985,3.381,3.041c0.182-0.284,0.381-0.559,0.593-0.827c-1.721-1.66-3.535-3.224-5.454-4.658
			C65.876,32.801,58.252,29.286,49.973,27.568z"/>
		<path fill="#F7B300" d="M90.441,62.941c-2.49-6.353-6.096-12.146-10.597-17.122c-0.29,0.205-0.559,0.404-0.815,0.598
			c4.439,4.889,7.995,10.587,10.452,16.837C89.796,63.146,90.117,63.042,90.441,62.941z"/>
		<path fill="#F7B300" d="M49.107,28.431c-0.299,0.282-0.615,0.555-0.944,0.823c9.417,1.708,18.004,5.805,25.094,11.662
			c1.215,1.001,2.379,2.061,3.504,3.162c0.153-0.309,0.327-0.609,0.515-0.901c-1.088-1.055-2.21-2.076-3.381-3.041
			C66.864,34.342,58.394,30.241,49.107,28.431z"/>
		<path fill="#F8B400" d="M48.132,29.28c-0.317,0.257-0.653,0.504-1.002,0.745c11.313,1.88,21.442,7.275,29.212,15.039
			c0.118-0.338,0.26-0.666,0.418-0.987c-1.125-1.101-2.289-2.16-3.504-3.162C66.157,35.064,57.558,30.976,48.132,29.28z"/>
		<path fill="#F8B400" d="M89.481,63.254c-2.457-6.25-6.013-11.948-10.452-16.837c-0.288,0.218-0.558,0.429-0.804,0.628
			c4.366,4.807,7.862,10.411,10.276,16.558C88.821,63.482,89.151,63.368,89.481,63.254z"/>
		<path fill="#F8B500" d="M87.564,63.973c0.298-0.122,0.597-0.242,0.904-0.357c-2.401-6.15-5.888-11.757-10.243-16.571
			c-0.288,0.233-0.544,0.446-0.777,0.642c0.004,0.005,0.008,0.01,0.013,0.015C81.754,52.423,85.192,57.931,87.564,63.973z"/>
		<path fill="#F8B500" d="M45.823,30.839c11.765,1.691,22.278,7.255,30.213,15.36c0.076-0.388,0.178-0.767,0.307-1.136
			C68.572,37.3,58.443,31.905,47.13,30.025C46.72,30.308,46.285,30.581,45.823,30.839z"/>
		<path fill="#F8B600" d="M87.531,63.986c-2.36-6.045-5.788-11.556-10.07-16.285c-0.004-0.005-0.008-0.01-0.013-0.015
			c-0.301,0.253-0.558,0.472-0.768,0.644c4.244,4.646,7.644,10.07,9.986,16.026C86.951,64.231,87.237,64.106,87.531,63.986z"/>
		<path fill="#F8B600" d="M45.823,30.839c-0.534,0.299-1.093,0.586-1.709,0.847l-0.103,0.01c10.314,1.129,19.725,5.276,27.32,11.55
			c1.608,1.325,3.125,2.754,4.563,4.26c0.015-0.446,0.059-0.882,0.142-1.306C68.101,38.094,57.587,32.53,45.823,30.839z"/>
		<path fill="#F8B700" d="M71.331,43.245c-7.636-6.292-17.1-10.441-27.47-11.535l-1.304,0.127c-1.092,0.134-2.161,0.33-3.208,0.575
			c11.034,0.222,21.212,3.946,29.453,10.126c7.542,5.641,13.456,13.332,16.946,22.236c0.3-0.142,0.607-0.281,0.918-0.418
			C84.324,58.4,80.924,52.976,76.68,48.33c-0.597,0.485-0.847,0.603-0.784,0.081c-0.023-0.309-0.012-0.607-0.002-0.906
			C74.457,46,72.939,44.57,71.331,43.245z"/>
		<path fill="#F8B700" d="M68.802,42.539c-8.278-6.192-18.506-9.909-29.588-10.092c-1.139,0.273-2.249,0.611-3.328,1.008
			c0.804-0.039,1.612-0.062,2.425-0.062c12.05,0,23.105,4.28,31.73,11.401c6.537,5.384,11.67,12.403,14.798,20.424
			c0.296-0.15,0.601-0.297,0.909-0.443C82.258,55.871,76.345,48.18,68.802,42.539z"/>
		<path fill="#F8B800" d="M70.042,44.793c-8.618-7.097-19.654-11.361-31.681-11.361c-0.873,0-1.741,0.023-2.603,0.068
			c-0.861,0.32-1.7,0.679-2.519,1.073c1.645-0.167,3.312-0.253,5.001-0.253c14.368,0,27.292,6.211,36.238,16.092
			c4.027,4.429,7.241,9.606,9.435,15.289c0.301-0.164,0.612-0.324,0.926-0.483C81.711,57.197,76.579,50.177,70.042,44.793z"/>
		<path fill="#F8B900" d="M38.241,34.32c-1.688,0-3.356,0.086-5.001,0.253c-0.85,0.409-1.675,0.856-2.476,1.34
			c2.437-0.383,4.933-0.586,7.477-0.586c14.072,0,26.73,6.084,35.491,15.761c3.978,4.374,7.146,9.492,9.295,15.112
			c0.28-0.162,0.563-0.323,0.854-0.482c-2.181-5.688-5.386-10.87-9.403-15.307C65.533,40.532,52.608,34.32,38.241,34.32z"/>
		<path fill="#F8BA00" d="M38.241,35.328c-2.544,0-5.04,0.203-7.477,0.586c-0.798,0.482-1.57,1-2.315,1.552
			c3.181-0.682,6.478-1.05,9.862-1.05c11.326,0,21.716,4.025,29.82,10.721c6.244,5.145,11.126,11.877,14.047,19.573
			c0.268-0.165,0.538-0.328,0.818-0.491c-2.137-5.625-5.297-10.748-9.264-15.129C64.971,41.412,52.312,35.328,38.241,35.328z"/>
		<path fill="#F9BA00" d="M68.131,47.137c-8.097-6.672-18.468-10.681-29.771-10.681c-3.437,0-6.784,0.381-10.011,1.084
			c-0.599,0.448-1.185,0.91-1.747,1.399c3.739-0.986,7.661-1.516,11.708-1.516c11.08,0,21.246,3.937,29.175,10.487
			c6.164,5.078,10.976,11.735,13.826,19.348c0.282-0.184,0.57-0.367,0.867-0.549C79.257,59.014,74.375,52.281,68.131,47.137z"/>
		<path fill="#F9BB00" d="M67.486,47.911c-7.922-6.525-18.068-10.447-29.125-10.447c-4.096,0-8.064,0.546-11.844,1.555
			c-0.518,0.455-1.015,0.931-1.5,1.42c4.201-1.304,8.666-2.007,13.293-2.007c10.837,0,20.779,3.851,28.535,10.257
			c6.089,5.016,10.833,11.606,13.61,19.146c0.277-0.192,0.562-0.383,0.856-0.575C78.461,59.646,73.65,52.988,67.486,47.911z"/>
		<path fill="#F9BC00" d="M66.846,48.688c-7.748-6.382-17.671-10.217-28.485-10.217c-4.677,0-9.186,0.719-13.426,2.049
			c-0.421,0.429-0.833,0.866-1.228,1.319c4.55-1.601,9.438-2.48,14.533-2.48c12.888,0,24.481,5.572,32.504,14.436
			c3.838,4.22,6.86,9.193,8.828,14.668c0.284-0.209,0.579-0.418,0.883-0.629C77.679,60.294,72.935,53.705,66.846,48.688z"/>
		<path fill="#F9BD00" d="M38.241,39.359c-5.095,0-9.983,0.88-14.533,2.48c-0.438,0.502-0.856,1.02-1.26,1.55
			c4.889-1.943,10.214-3.023,15.793-3.023c12.595,0,23.924,5.447,31.763,14.111c3.818,4.198,6.804,9.162,8.722,14.626
			c0.261-0.203,0.532-0.408,0.812-0.615c-1.955-5.482-4.964-10.463-8.793-14.693C62.722,44.932,51.128,39.359,38.241,39.359z"/>
		<path fill="#F9BD00" d="M38.241,40.366c-5.579,0-10.904,1.08-15.793,3.023c-0.425,0.558-0.83,1.131-1.215,1.718
			c5.217-2.34,10.994-3.652,17.078-3.652c10.101,0,19.369,3.587,26.6,9.556c5.919,4.871,10.467,11.339,13.006,18.739
			c0.247-0.204,0.506-0.411,0.774-0.621c-1.905-5.472-4.88-10.444-8.688-14.652C62.165,45.813,50.835,40.366,38.241,40.366z"/>
		<path fill="#F9BE00" d="M64.911,51.011c-7.223-5.945-16.472-9.517-26.55-9.517c-6.127,0-11.942,1.331-17.188,3.702
			c-0.315,0.484-0.62,0.974-0.907,1.476c5.443-2.69,11.566-4.209,18.045-4.209c9.859,0,18.906,3.502,25.963,9.329
			c5.874,4.835,10.365,11.283,12.817,18.66c0.261-0.229,0.536-0.462,0.826-0.702C75.377,62.351,70.83,55.882,64.911,51.011z"/>
		<path fill="#F9BF00" d="M64.274,51.792c-7.05-5.803-16.077-9.29-25.913-9.29c-6.518,0-12.676,1.539-18.143,4.259
			c-0.272,0.479-0.528,0.969-0.773,1.463c5.616-3.031,12.041-4.754,18.867-4.754c9.615,0,18.437,3.415,25.319,9.096
			c5.843,4.808,10.288,11.25,12.646,18.622c0.254-0.237,0.523-0.481,0.814-0.736C74.639,63.075,70.148,56.627,64.274,51.792z"/>
		<path fill="#F9C000" d="M63.63,52.567c-6.875-5.658-15.677-9.057-25.269-9.057c-6.862,0-13.32,1.739-18.958,4.801
			c-0.215,0.436-0.418,0.877-0.612,1.324c5.72-3.324,12.361-5.237,19.449-5.237c11.41,0,21.674,4.936,28.775,12.785
			c3.821,4.2,6.728,9.244,8.42,14.814c0.252-0.252,0.533-0.523,0.84-0.809C73.917,63.816,69.473,57.375,63.63,52.567z"/>
		<path fill="#F9C000" d="M38.241,44.397c-7.088,0-13.729,1.913-19.449,5.237c-0.221,0.51-0.426,1.027-0.619,1.55
			c5.817-3.657,12.694-5.78,20.068-5.78c11.117,0,21.115,4.81,28.032,12.458c3.844,4.227,6.733,9.332,8.354,14.972
			c0.219-0.236,0.477-0.505,0.772-0.802c-1.676-5.582-4.571-10.638-8.383-14.852C59.915,49.333,49.651,44.397,38.241,44.397z"/>
		<path fill="#FAC100" d="M38.241,45.405c-7.374,0-14.251,2.123-20.068,5.78c-0.206,0.559-0.396,1.124-0.568,1.697
			c5.9-4.029,13.028-6.389,20.707-6.389c8.886,0,17.039,3.156,23.398,8.408c5.816,4.785,10.132,11.322,12.155,18.799
			c0.144-0.174,0.387-0.457,0.726-0.825c-1.604-5.653-4.482-10.771-8.317-15.012C59.356,50.215,49.357,45.405,38.241,45.405z"/>
		<path fill="#FAC200" d="M61.709,54.901c-6.353-5.228-14.486-8.368-23.349-8.368c-7.713,0-14.871,2.382-20.786,6.445
			c-0.142,0.475-0.271,0.954-0.389,1.438c5.921-4.343,13.223-6.915,21.125-6.915c8.645,0,16.575,3.071,22.762,8.181
			c5.859,4.822,10.154,11.472,12.023,19.074c0.228-0.239,0.438-0.511,0.605-0.855c0,0,0.059-0.075,0.163-0.2
			C71.841,66.224,67.525,59.687,61.709,54.901z"/>
		<path fill="#FAC300" d="M61.073,55.682c-6.18-5.085-14.091-8.141-22.712-8.141c-7.934,0-15.264,2.591-21.199,6.967
			c-0.113,0.472-0.215,0.948-0.306,1.428c5.912-4.646,13.358-7.427,21.455-7.427c8.397,0,16.103,2.982,22.114,7.945
			c5.925,4.873,10.205,11.669,11.898,19.429c0.148-0.268,0.304-0.532,0.444-0.805c0.119-0.09,0.222-0.21,0.329-0.322
			C71.227,67.154,66.932,60.504,61.073,55.682z"/>
		<path fill="#FAC300" d="M60.425,56.454c-6.004-4.938-13.689-7.905-22.064-7.905c-8.128,0-15.601,2.801-21.523,7.48
			c-0.076,0.408-0.139,0.819-0.197,1.232c5.855-4.883,13.386-7.825,21.601-7.825c9.933,0,18.866,4.298,25.045,11.133
			c4.171,4.585,7.088,10.325,8.235,16.678c0.279-0.448,0.546-0.902,0.801-1.364C70.63,68.124,66.35,61.327,60.425,56.454z"/>
		<path fill="#FAC400" d="M38.241,49.437c-8.215,0-15.745,2.941-21.601,7.825c-0.069,0.491-0.127,0.985-0.172,1.482
			c5.789-5.159,13.415-8.299,21.772-8.299c9.64,0,18.309,4.173,24.303,10.808c4.276,4.701,7.199,10.651,8.166,17.234
			c0.266-0.383,0.52-0.774,0.769-1.17c-1.122-6.376-4.026-12.139-8.192-16.747C57.107,53.735,48.173,49.437,38.241,49.437z"/>
		<path fill="#FAC500" d="M38.241,50.444c-8.358,0-15.984,3.141-21.772,8.299c-0.049,0.536-0.085,1.075-0.104,1.617
			c5.703-5.464,13.432-8.829,21.947-8.829c7.667,0,14.702,2.723,20.19,7.254c6.188,5.088,10.413,12.472,11.383,20.844
			c0.268-0.35,0.521-0.711,0.773-1.072c-0.938-6.606-3.845-12.581-8.114-17.306C56.549,54.617,47.88,50.444,38.241,50.444z"/>
		<path fill="#FAC500" d="M58.501,58.786c-5.481-4.506-12.497-7.214-20.141-7.214c-8.542,0-16.294,3.386-22.002,8.881
			c-0.015,0.443-0.016,0.889-0.011,1.336c5.581-5.704,13.359-9.25,21.963-9.25c7.428,0,14.242,2.639,19.557,7.03
			c6.232,5.126,10.406,12.659,11.114,21.17c0.308-0.364,0.613-0.731,0.903-1.11C68.915,71.258,64.69,63.874,58.501,58.786z"/>
		<path fill="#FAC600" d="M57.868,59.57c-5.308-4.366-12.103-6.99-19.507-6.99c-8.63,0-16.429,3.568-22.013,9.302
			c0.007,0.436,0.026,0.874,0.052,1.313c5.436-5.928,13.241-9.647,21.911-9.647c7.185,0,13.776,2.553,18.917,6.8
			c6.262,5.151,10.384,12.81,10.822,21.436c0.317-0.342,0.63-0.687,0.931-1.043C68.273,72.229,64.1,64.696,57.868,59.57z"/>
		<path fill="#FAC700" d="M57.228,60.348c-5.134-4.223-11.706-6.76-18.867-6.76c-8.694,0-16.52,3.739-21.957,9.695
			c0.026,0.422,0.064,0.845,0.108,1.27c2.263-2.617,4.983-4.827,8.046-6.491c4.085-2.234,8.771-3.506,13.753-3.506
			c15.707,0,28.475,12.631,28.709,28.283c0.352-0.344,0.695-0.695,1.03-1.055C67.612,73.158,63.49,65.499,57.228,60.348z"/>
		<path fill="#FAC800" d="M38.241,54.596c-4.953,0-9.614,1.256-13.683,3.466c-3.062,1.664-5.783,3.874-8.046,6.491
			c0.02,0.184,0.031,0.367,0.054,0.552c0.029,0.237,0.07,0.47,0.105,0.706c5.082-6.295,12.856-10.327,21.57-10.327
			c8.162,0,15.501,3.535,20.574,9.155c4.478,4.923,7.209,11.463,7.209,18.638c0,0.171-0.01,0.339-0.013,0.509
			c0.321-0.286,0.632-0.581,0.94-0.879C66.731,67.242,53.957,54.596,38.241,54.596z"/>
		<path fill="#FBC800" d="M58.815,64.639c-5.073-5.62-12.413-9.155-20.574-9.155c-8.714,0-16.488,4.032-21.57,10.327
			c0.073,0.497,0.157,0.989,0.254,1.477c4.872-6.504,12.64-10.716,21.386-10.716c6.011,0,11.559,1.99,16.023,5.346
			c6.513,4.872,10.731,12.646,10.731,21.398c0,0.439-0.012,0.875-0.033,1.309c0.308-0.251,0.607-0.513,0.904-0.775
			c0.005-0.218,0.017-0.434,0.017-0.653C65.954,76.06,63.25,69.553,58.815,64.639z"/>
		<path fill="#FBC900" d="M54.334,61.917c-4.456-3.333-9.985-5.307-15.974-5.307c-8.766,0-16.549,4.231-21.419,10.761
			c0.084,0.417,0.175,0.831,0.276,1.241c4.644-6.666,12.36-11.034,21.094-11.034c6.213,0,11.913,2.209,16.357,5.883
			c5.732,4.714,9.39,11.859,9.39,19.854c0,0.718-0.037,1.428-0.095,2.131c0.362-0.268,0.722-0.539,1.07-0.822
			c0.021-0.434,0.033-0.87,0.033-1.309C65.066,74.562,60.848,66.789,54.334,61.917z"/>
		<path fill="#FBCA00" d="M54.668,63.461c-4.438-3.65-10.118-5.843-16.308-5.843c-8.752,0-16.482,4.386-21.123,11.075
			c0.101,0.408,0.208,0.813,0.326,1.213c4.397-6.807,12.046-11.32,20.748-11.32c5.968,0,11.442,2.121,15.712,5.649
			c5.51,4.529,9.027,11.396,9.027,19.08c0,0.982-0.064,1.949-0.176,2.901c0.369-0.249,0.732-0.505,1.088-0.77
			c0.058-0.704,0.095-1.413,0.095-2.131C64.058,75.321,60.4,68.175,54.668,63.461z"/>
		<path fill="#FBCB00" d="M54.023,64.235c-4.263-3.504-9.718-5.609-15.663-5.609c-8.718,0-16.379,4.53-20.773,11.359
			c0.113,0.38,0.229,0.759,0.355,1.133c2.179-3.617,5.296-6.605,9.015-8.626c3.372-1.847,7.24-2.898,11.353-2.898
			c13.072,0,23.682,10.609,23.682,23.683c0,1.258-0.1,2.492-0.29,3.697c0.398-0.242,0.787-0.498,1.171-0.757
			c0.112-0.952,0.176-1.919,0.176-2.901C63.05,75.632,59.534,68.765,54.023,64.235z"/>
		<path fill="#FBCB00" d="M38.241,59.634c-4.084,0-7.928,1.036-11.283,2.858c-3.719,2.021-6.835,5.009-9.015,8.626
			c0.134,0.392,0.275,0.78,0.424,1.164c3.858-7.008,11.313-11.761,19.874-11.761c6.682,0,12.69,2.896,16.841,7.5
			c3.667,4.029,5.903,9.382,5.903,15.254c0,1.493-0.148,2.95-0.424,4.363c0.363-0.2,0.719-0.411,1.072-0.625
			c0.189-1.206,0.29-2.44,0.29-3.699C61.922,70.243,51.313,59.634,38.241,59.634z"/>
		<path fill="#FBCC00" d="M55.082,68.022c-4.151-4.604-10.16-7.5-16.841-7.5c-8.561,0-16.015,4.753-19.874,11.761
			c0.174,0.45,0.359,0.893,0.554,1.331c3.555-7.113,10.902-12.003,19.39-12.003c5.235,0,10.039,1.86,13.785,4.955
			c4.841,3.975,7.932,10.004,7.932,16.751c0,1.681-0.198,3.314-0.561,4.885c0.334-0.166,0.672-0.328,0.999-0.506
			c0.293-1.454,0.448-2.958,0.448-4.498C60.915,77.362,58.706,72.042,55.082,68.022z"/>
		<path fill="#FBCD00" d="M52.096,66.564c-3.739-3.07-8.523-4.915-13.735-4.915c-8.501,0-15.86,4.907-19.407,12.04
			c0.168,0.376,0.349,0.746,0.532,1.114c3.239-7.178,10.444-12.186,18.825-12.186c4.996,0,9.579,1.777,13.153,4.733
			c4.612,3.79,7.556,9.535,7.556,15.965c0,1.889-0.275,3.71-0.751,5.448c0.405-0.179,0.804-0.367,1.198-0.563
			c0.362-1.571,0.561-3.204,0.561-4.885C60.028,76.568,56.937,70.539,52.096,66.564z"/>
		<path fill="#FBCD00" d="M51.464,67.35c-3.566-2.931-8.13-4.693-13.103-4.693c-8.395,0-15.609,5.023-18.84,12.218
			c0.182,0.362,0.373,0.717,0.569,1.069c2.909-7.216,9.968-12.319,18.222-12.319c4.754,0,9.115,1.692,12.515,4.504
			c4.386,3.605,7.187,9.07,7.187,15.186c0,2.076-0.327,4.074-0.925,5.953c0.4-0.157,0.791-0.332,1.182-0.504
			c0.476-1.738,0.751-3.56,0.751-5.448C59.02,76.885,56.076,71.14,51.464,67.35z"/>
		<path fill="#FBCE00" d="M50.826,68.129c-3.393-2.788-7.734-4.464-12.465-4.464c-8.266,0-15.332,5.119-18.232,12.351
			c0.188,0.337,0.385,0.669,0.585,0.998c1.561-4.334,4.663-7.933,8.666-10.102c2.653-1.452,5.696-2.28,8.931-2.28
			c10.291,0,18.643,8.353,18.643,18.644c0,2.273-0.428,4.442-1.174,6.458c0.439-0.148,0.878-0.298,1.308-0.466
			c0.598-1.878,0.925-3.877,0.925-5.953C58.012,77.199,55.212,71.734,50.826,68.129z"/>
		<path fill="#FCCF00" d="M38.241,64.673c-3.207,0-6.225,0.812-8.861,2.24c-4.003,2.168-7.105,5.768-8.666,10.102
			c0.213,0.35,0.433,0.694,0.66,1.033c2.205-7.225,8.923-12.487,16.867-12.487c5.484,0,10.386,2.508,13.621,6.439
			c2.548,3.058,4.084,6.988,4.084,11.277c0,2.423-0.491,4.731-1.376,6.833c0.385-0.112,0.769-0.227,1.146-0.354
			c0.742-2.01,1.168-4.174,1.168-6.441C56.884,73.024,48.532,64.673,38.241,64.673z"/>
		<path fill="#FCCF00" d="M51.862,72c-3.235-3.931-8.137-6.439-13.621-6.439c-7.944,0-14.662,5.262-16.867,12.487
			c0.267,0.399,0.543,0.791,0.828,1.175c1.814-7.218,8.331-12.574,16.109-12.574c4.021,0,7.71,1.431,10.587,3.81
			c3.717,3.05,6.091,7.678,6.091,12.857c0,2.554-0.594,4.964-1.624,7.127c0.366-0.09,0.724-0.194,1.083-0.297
			c0.917-2.133,1.428-4.481,1.428-6.949C55.876,78.946,54.369,75.045,51.862,72z"/>
		<path fill="#FCD000" d="M48.898,70.458c-2.869-2.354-6.538-3.77-10.537-3.77c-7.785,0-14.307,5.366-16.114,12.594
			c0.242,0.325,0.489,0.646,0.744,0.96c1.415-7.171,7.736-12.586,15.32-12.586c3.779,0,7.246,1.345,9.949,3.582
			c3.491,2.865,5.721,7.211,5.721,12.077c0,2.678-0.677,5.199-1.866,7.402c0.42-0.084,0.838-0.174,1.25-0.275
			c1.03-2.163,1.624-4.573,1.624-7.127C54.989,78.136,52.615,73.509,48.898,70.458z"/>
		<path fill="#FCD100" d="M48.26,71.238c-2.695-2.212-6.143-3.542-9.899-3.542c-7.59,0-13.915,5.423-15.322,12.603
			c0.266,0.327,0.537,0.648,0.815,0.962c0.985-7.111,7.077-12.597,14.457-12.597c3.536,0,6.78,1.259,9.308,3.352
			c3.267,2.681,5.354,6.748,5.354,11.3c0,2.8-0.803,5.408-2.17,7.631c0.44-0.068,0.879-0.142,1.312-0.229
			c1.189-2.204,1.866-4.724,1.866-7.402C53.981,78.45,51.751,74.104,48.26,71.238z"/>
		<path fill="#FCD200" d="M47.619,72.016c-2.521-2.069-5.745-3.312-9.258-3.312c-7.385,0-13.48,5.493-14.459,12.61
			c0.26,0.291,0.521,0.58,0.792,0.86c0.391-4.688,3.153-8.704,7.092-10.833c1.938-1.062,4.161-1.668,6.525-1.668
			c7.51,0,13.604,6.095,13.604,13.604c0,2.932-0.938,5.641-2.517,7.863c0.145-0.016,0.29-0.024,0.435-0.042
			c0.327-0.04,0.646-0.1,0.969-0.15c1.368-2.223,2.17-4.831,2.17-7.631C52.973,78.763,50.886,74.696,47.619,72.016z"/>
		<path fill="#FCD200" d="M38.241,69.711c-2.336,0-4.534,0.591-6.455,1.629c-3.939,2.129-6.701,6.146-7.092,10.833
			c0.312,0.323,0.629,0.64,0.954,0.949c0.04-6.92,5.665-12.524,12.593-12.524c3.919,0,7.421,1.793,9.732,4.604
			c1.83,2.187,2.935,5.001,2.935,8.074c0,3.028-1.072,5.807-2.855,7.98c0.433-0.027,0.866-0.067,1.301-0.113
			c1.564-2.216,2.491-4.912,2.491-7.828C51.845,75.807,45.75,69.711,38.241,69.711z"/>
		<path fill="#FCD300" d="M47.973,75.202c-2.311-2.81-5.813-4.604-9.732-4.604c-6.928,0-12.553,5.604-12.593,12.524
			c0.364,0.345,0.737,0.679,1.117,1.005c-0.021-0.282-0.043-0.564-0.043-0.851c0-6.397,5.191-11.59,11.589-11.59
			c2.806,0,5.379,1,7.385,2.661c2.596,2.126,4.254,5.354,4.254,8.968c0,3.104-1.229,5.919-3.219,8
			c0.391-0.007,0.785-0.029,1.178-0.052c1.827-2.186,2.929-4.998,2.929-8.067C50.837,80.162,49.762,77.377,47.973,75.202z"/>
		<path fill="#FCD400" d="M45.696,74.348c-1.998-1.637-4.552-2.621-7.335-2.621c-6.396,0-11.589,5.192-11.589,11.589
			c0,0.288,0.022,0.57,0.043,0.853c0.352,0.3,0.709,0.592,1.075,0.876c-0.097-0.576-0.16-1.165-0.16-1.768
			c0-5.841,4.74-10.582,10.581-10.582c2.562,0,4.913,0.914,6.744,2.431c2.371,1.941,3.887,4.889,3.887,8.19
			c0,3.194-1.424,6.053-3.664,7.994c0.482,0.014,0.967,0.016,1.453,0.006c1.99-2.081,3.219-4.896,3.219-8
			C49.95,79.702,48.292,76.474,45.696,74.348z"/>
		<path fill="#FCD400" d="M48.942,83.315c0-3.301-1.516-6.249-3.887-8.19c-1.824-1.493-4.154-2.391-6.694-2.391
			c-5.841,0-10.581,4.74-10.581,10.581c0,0.603,0.062,1.19,0.159,1.766c0.388,0.3,0.783,0.59,1.186,0.87
			c-0.248-0.85-0.387-1.746-0.387-2.675c0-5.285,4.289-9.574,9.573-9.574c2.321,0,4.449,0.828,6.107,2.204
			c2.145,1.756,3.516,4.423,3.516,7.41c0,3.285-1.659,6.184-4.182,7.909c0.506,0.041,1.015,0.07,1.526,0.085
			C47.518,89.368,48.942,86.51,48.942,83.315z"/>
		<path fill="#FDD500" d="M47.934,83.315c0-2.986-1.371-5.653-3.516-7.41c-1.651-1.351-3.759-2.164-6.057-2.164
			c-5.285,0-9.574,4.289-9.574,9.573c0,0.927,0.139,1.82,0.385,2.667c0.411,0.285,0.829,0.56,1.254,0.824
			c-0.478-1.067-0.75-2.247-0.75-3.492c0-3.258,1.823-6.092,4.503-7.541c1.226-0.677,2.633-1.065,4.132-1.065
			c4.729,0,8.565,3.838,8.565,8.566c0,3.258-1.823,6.093-4.504,7.541c-0.132,0.073-0.27,0.135-0.405,0.201
			c0.591,0.084,1.185,0.157,1.785,0.206C46.275,89.5,47.934,86.601,47.934,83.315z"/>
		<path fill="#FDD600" d="M46.807,83.315c0-4.728-3.838-8.565-8.566-8.565c-1.47,0-2.853,0.372-4.062,1.025
			c-2.68,1.448-4.503,4.283-4.503,7.541c0,1.245,0.272,2.424,0.75,3.492c0.622,0.388,1.258,0.752,1.908,1.093
			c-1.03-1.292-1.65-2.925-1.65-4.704c0-4.173,3.386-7.559,7.558-7.559c2.354,0,4.457,1.078,5.843,2.767
			c1.112,1.316,1.786,3.015,1.786,4.872c0,3.614-2.544,6.634-5.936,7.378c0.671,0.144,1.349,0.267,2.034,0.364
			c0.136-0.066,0.273-0.128,0.405-0.201C45.015,89.358,46.807,86.545,46.807,83.315z"/>
		<path fill="#FDD600" d="M45.799,83.196c0-1.819-0.644-3.487-1.715-4.792c-1.387-1.688-3.49-2.767-5.843-2.767
			c-4.172,0-7.558,3.386-7.558,7.559c0,1.779,0.62,3.413,1.65,4.704c2.309,1.214,4.786,2.131,7.377,2.708
			C43.179,89.924,45.799,86.865,45.799,83.196z M38.241,89.866c-3.616,0-6.55-2.935-6.55-6.551c0-2.494,1.396-4.663,3.45-5.769
			c0.94-0.521,2.02-0.821,3.17-0.821c3.615,0,6.551,2.935,6.551,6.551c0,2.494-1.397,4.663-3.451,5.769
			C40.471,89.567,39.391,89.866,38.241,89.866z"/>
		<path fill="#FDD700" d="M44.792,83.315c0-3.615-2.936-6.55-6.551-6.55c-1.122,0-2.177,0.283-3.1,0.781
			c-2.053,1.106-3.45,3.275-3.45,5.769c0,3.616,2.934,6.551,6.55,6.551c1.15,0,2.23-0.299,3.17-0.821
			C43.425,87.928,44.792,85.781,44.792,83.315z M38.361,88.858c-1.346,0-2.58-0.481-3.54-1.28c-1.251-1.017-2.053-2.566-2.053-4.302
			c0-3.06,2.483-5.543,5.543-5.543c1.347,0,2.581,0.482,3.542,1.282c1.25,1.016,2.05,2.565,2.05,4.3
			C43.903,86.375,41.42,88.858,38.361,88.858z"/>
		<path fill="#FDD800" d="M41.853,79.015c-0.953-0.775-2.168-1.242-3.492-1.242c-3.06,0-5.543,2.482-5.543,5.542
			c0,1.714,0.78,3.246,2.003,4.263c0.96,0.798,2.194,1.28,3.54,1.28c3.06,0,5.542-2.483,5.542-5.543
			C43.903,81.58,43.103,80.031,41.853,79.015z M33.776,83.276c0-2.504,2.032-4.535,4.535-4.535c0.96,0,1.848,0.303,2.582,0.813
			c1.208,0.814,2.002,2.195,2.002,3.761c0,2.504-2.031,4.535-4.534,4.535c-0.961,0-1.849-0.303-2.582-0.813
			C34.571,86.222,33.776,84.842,33.776,83.276z"/>
		<path fill="#FDD800" d="M33.826,83.315c0,1.543,0.775,2.902,1.953,3.722c0.733,0.51,1.621,0.813,2.582,0.813
			c2.503,0,4.534-2.031,4.534-4.535c0-1.565-0.795-2.946-2.002-3.761c-0.723-0.488-1.594-0.773-2.532-0.773
			C35.857,78.781,33.826,80.812,33.826,83.315z M41.838,83.276c0,1.242-0.647,2.33-1.62,2.958c-0.564,0.383-1.245,0.608-1.978,0.608
			c-1.946,0-3.526-1.58-3.526-3.527c0-1.242,0.646-2.329,1.617-2.958c0.564-0.384,1.246-0.609,1.979-0.609
			C40.258,79.749,41.838,81.329,41.838,83.276z"/>
		<path fill="#FDD900" d="M41.768,83.315c0-1.946-1.58-3.526-3.527-3.526c-0.705,0-1.358,0.212-1.909,0.569
			c-0.971,0.628-1.617,1.716-1.617,2.958c0,1.947,1.58,3.527,3.526,3.527c0.733,0,1.414-0.225,1.978-0.608
			C41.153,85.6,41.768,84.529,41.768,83.315z M38.241,80.677c0.728,0,1.379,0.314,1.839,0.808c0.462,0.457,0.75,1.09,0.75,1.792
			c0,1.391-1.129,2.519-2.52,2.519c-0.728,0-1.379-0.314-1.839-0.808c-0.462-0.457-0.75-1.09-0.75-1.791
			C35.722,81.805,36.85,80.677,38.241,80.677z"/>
		<path fill="#FDDA00" d="M36.472,84.987c0.455,0.449,1.079,0.728,1.769,0.728c1.391,0,2.52-1.128,2.52-2.519
			c0-0.663-0.262-1.262-0.68-1.711c-0.46-0.494-1.111-0.808-1.839-0.808c-1.391,0-2.519,1.128-2.519,2.52
			C35.722,83.897,36.009,84.53,36.472,84.987z M39.092,84.563c-0.243,0.166-0.535,0.264-0.851,0.264
			c-0.835,0-1.512-0.677-1.512-1.512c0-0.547,0.294-1.022,0.73-1.287c0.243-0.166,0.536-0.264,0.852-0.264
			c0.834,0,1.512,0.677,1.512,1.512C39.823,83.824,39.528,84.299,39.092,84.563z"/>
		<path fill="#FDDA00" d="M39.752,83.315c0-0.834-0.678-1.511-1.512-1.511c-0.287,0-0.553,0.084-0.781,0.224
			c-0.437,0.265-0.73,0.74-0.73,1.287c0,0.835,0.677,1.512,1.512,1.512c0.316,0,0.608-0.098,0.851-0.264
			C39.49,84.292,39.752,83.834,39.752,83.315z M38.311,82.772c0.143,0,0.271,0.062,0.363,0.158c0.114,0.093,0.191,0.228,0.191,0.385
			c0,0.278-0.226,0.504-0.504,0.504c-0.144,0-0.271-0.062-0.363-0.158c-0.114-0.093-0.19-0.228-0.19-0.385
			C37.807,82.998,38.033,82.772,38.311,82.772z"/>
		<path fill="#FDDB00" d="M37.857,83.315c0,0.135,0.055,0.255,0.141,0.346c0.092,0.097,0.22,0.158,0.363,0.158
			c0.278,0,0.504-0.226,0.504-0.504c0-0.157-0.077-0.292-0.191-0.385c-0.086-0.07-0.193-0.119-0.313-0.119
			C38.083,82.812,37.857,83.038,37.857,83.315z"/>
	</g>
</g>
<g id="Ebene_5">
</g>
<g id="white_fleck">
	<path fill="#FFFFFF" d="M26.587,59.521c5.442-0.778,5.329-6.758,8.422-11.302c1.718-2.522,4.249-6.571,4.249-6.571
		s-3.873,0.941-5.96,2.306C27.764,47.57,20.042,60.457,26.587,59.521L26.587,59.521z"/>
	<path fill="#FFFFFF" d="M23.751,61.687c0,0-1.525,2.396-1.445,4.084c0.084,1.721,0.197,3.73,1.901,3.988
		c1.71,0.26,2.991-3.276,2.991-3.276l0.227-3.646L23.751,61.687L23.751,61.687z"/>
</g>
<g id="Ebene_7">
</g>
<g id="Ebene_3">
</g>
<g id="fastalne">
	<g>
		<polygon fill="#ED6921" points="131.937,81.9 473.829,81.9 494.489,25.367 131.938,25.367 131.937,81.9 		"/>
		<polygon fill="#ECECEB" points="160.738,49.76 187.248,49.76 184.57,56.454 158.06,56.454 152.748,69.735 146.053,69.735 
			159.334,36.531 192.539,36.531 189.861,43.226 163.351,43.226 160.738,49.76 		"/>
		<path fill-rule="evenodd" clip-rule="evenodd" fill="#ECECEB" d="M217.72,56.454h-19.816l-5.312,13.281h-6.693l13.281-33.204
			h33.203l-13.281,33.204h-6.693L217.72,56.454L217.72,56.454z M200.582,49.76h19.815l2.614-6.534h-19.816L200.582,49.76
			L200.582,49.76z"/>
		<polygon fill="#ECECEB" points="228.419,63.042 254.929,63.042 257.564,56.454 231.054,56.454 239.023,36.531 272.226,36.531 
			269.549,43.226 243.04,43.226 240.425,49.76 266.935,49.76 258.945,69.735 225.742,69.735 228.419,63.042 		"/>
		<polygon fill="#ECECEB" points="312.071,36.531 309.393,43.226 296.165,43.226 285.561,69.735 278.868,69.735 289.471,43.226 
			276.19,43.226 278.868,36.531 312.071,36.531 		"/>
		<polygon fill="#ECECEB" points="314.801,63.042 341.311,63.042 338.633,69.735 305.43,69.735 318.711,36.531 325.405,36.531 
			314.801,63.042 		"/>
		<path fill-rule="evenodd" clip-rule="evenodd" fill="#ECECEB" d="M377.095,56.454H357.28l-5.312,13.281h-6.694l13.281-33.204
			h33.203l-13.282,33.204h-6.692L377.095,56.454L377.095,56.454z M359.958,49.76h19.815l2.614-6.534h-19.816L359.958,49.76
			L359.958,49.76z"/>
		<polygon fill="#ECECEB" points="431.602,36.531 418.321,69.735 411.627,69.735 422.231,43.226 402.415,43.226 391.811,69.735 
			385.117,69.735 398.399,36.531 431.602,36.531 		"/>
		<polygon fill="#ECECEB" points="434.333,63.042 460.842,63.042 458.165,69.735 424.961,69.735 438.243,36.531 471.448,36.531 
			468.77,43.226 442.26,43.226 439.645,49.76 466.155,49.76 463.479,56.454 436.967,56.454 434.333,63.042 		"/>
	</g>
</g>
</svg>
